<?xml version="1.0" encoding="iso-8859-1"?>
<!-- Generator: Adobe Illustrator 18.0.0, SVG Export Plug-In . SVG Version: 6.00 Build 0)  -->
<!DOCTYPE svg PUBLIC "-//W3C//DTD SVG 1.1//EN" "http://www.w3.org/Graphics/SVG/1.1/DTD/svg11.dtd">
<svg version="1.1" id="_x32_" xmlns="http://www.w3.org/2000/svg" xmlns:xlink="http://www.w3.org/1999/xlink" x="0px" y="0px"
	 viewBox="0 0 512 512" style="enable-background:new 0 0 512 512;" xml:space="preserve">
<g>
	<rect style="fill:#EBE5D3;" width="512" height="512"/>
	<polygon style="opacity:0.1;fill:#231815;" points="512,258.815 512,512 163.84,512 53.3,401.46 232.59,296.703 353.995,100.763 	
		"/>
	<g>
		<g>
			<path style="fill:#D76A77;" d="M53.237,407.58H202.05l-79.63-79.63C80.015,347.35,53.237,375.833,53.237,407.58z"/>
			<path style="fill:#CB6072;" d="M256,301.725c-51.17,0-97.903,9.9-133.58,26.225l79.63,79.63h256.71
				C458.76,349.12,367.98,301.725,256,301.725z"/>
		</g>
		<g>
			<g>
				<g>
					<path style="fill:#8492A9;" d="M182.32,238.455c0,18.82-15.26,34.078-34.08,34.078c-18.825,0-34.08-15.258-34.08-34.078
						c0-18.822,15.255-34.08,34.08-34.08C167.06,204.375,182.32,219.633,182.32,238.455z"/>
					<circle style="fill:#8492A9;" cx="366.35" cy="238.455" r="34.08"/>
				</g>
				<g>
					<rect x="112.672" y="155.583" style="fill:#AFAFAF;" width="59.845" height="33.09"/>
					<rect x="123.235" y="155.583" style="fill:#999A9A;" width="5.632" height="33.09"/>
					<rect x="135.202" y="155.583" style="fill:#999A9A;" width="5.635" height="33.09"/>
					<path style="fill:#C3C4C4;" d="M117.505,191.745c0,6-4.863,10.863-10.863,10.863l0,0c-6,0-10.867-4.863-10.867-10.863V152.51
						c0-6,4.867-10.862,10.867-10.862l0,0c6,0,10.863,4.862,10.863,10.862V191.745z"/>
				</g>
				<path style="fill:#95A8AD;" d="M306.36,129.632l-49.51,49.503l-49.51-49.503l-49.503,49.503l-13.07-13.07v177.65
					c0,20.913,16.955,37.865,37.862,37.865h148.44c20.91,0,37.86-16.952,37.86-37.865v-177.65l-13.07,13.07L306.36,129.632z"/>
				<path style="fill:#8FAEB3;" d="M306.36,129.632l-49.51,49.503l-49.51-49.503l-49.503,49.503l-13.07-13.07v177.65
					c0,20.913,16.955,37.865,37.862,37.865h148.44c20.91,0,37.86-16.952,37.86-37.865v-177.65l-13.07,13.07L306.36,129.632z"/>
				<path style="fill:#C0B495;" d="M239.88,319.485c0-20.913-16.96-37.862-37.87-37.862h-57.243v62.092
					c0,20.913,16.955,37.865,37.862,37.865h57.25V319.485z"/>
				<g>
					<path style="fill:#B1A48C;" d="M194.87,277.078h-7.57c-2.51,0-4.55,2.035-4.55,4.545c0,2.507,2.04,4.543,4.55,4.543h7.57
						c2.51,0,4.54-2.035,4.54-4.543C199.41,279.113,197.38,277.078,194.87,277.078z M232.76,290.28c-1.95-2.047-4.09-3.9-6.41-5.525
						c-2.06-1.445-4.89-0.947-6.33,1.105c-1.44,2.055-0.95,4.89,1.11,6.332c1.82,1.278,3.51,2.735,5.04,4.348
						c1.73,1.817,4.6,1.892,6.42,0.162C234.41,294.975,234.48,292.098,232.76,290.28z M244.42,328.575v-7.573
						c0-2.512-2.04-4.545-4.54-4.545c-2.51,0-4.55,2.033-4.55,4.545v7.573c0,2.51,2.04,4.545,4.55,4.545
						C242.38,333.12,244.42,331.085,244.42,328.575z M244.42,366.443v-7.575c0-2.51-2.04-4.545-4.54-4.545
						c-2.51,0-4.55,2.035-4.55,4.545v7.575c0,2.51,2.04,4.542,4.55,4.542C242.38,370.985,244.42,368.952,244.42,366.443z"/>
				</g>
				<path style="fill:#7095B8;" d="M368.93,166.065l-2.46,2.467l0,0l-10.61,10.603l-49.5-49.503l-38.23,38.22
					c-2.61,9.883-4.02,20.255-4.02,30.96c0,61.272,45.67,111.832,104.82,119.592V166.065z"/>
				<g>
					<path style="fill:#657762;" d="M259.56,198.813c0,1.312,0.02,2.622,0.06,3.925c0.08,2.51,2.18,4.483,4.68,4.405
						c2.51-0.075,4.48-2.172,4.41-4.682c-0.04-1.21-0.06-2.425-0.06-3.647c0-2.51-2.04-4.543-4.54-4.543
						C261.59,194.27,259.56,196.302,259.56,198.813z"/>
					<path style="fill:#657762;" d="M298.07,289.118c1.91,1.832,3.88,3.608,5.91,5.317c1.91,1.62,4.78,1.378,6.4-0.537
						c1.62-1.918,1.38-4.783-0.54-6.402c-1.88-1.588-3.7-3.235-5.47-4.933c-1.81-1.738-4.69-1.677-6.43,0.133
						C296.2,284.505,296.26,287.383,298.07,289.118z M268.79,246.068c1,2.46,2.08,4.88,3.24,7.257c1.09,2.26,3.81,3.202,6.07,2.11
						c2.26-1.095,3.2-3.815,2.11-6.072c-1.07-2.205-2.07-4.45-3-6.73c-0.95-2.323-3.61-3.44-5.93-2.49
						C268.96,241.09,267.85,243.745,268.79,246.068z"/>
					<path style="fill:#657762;" d="M342.32,316.597c1.24,0.448,2.47,0.87,3.72,1.275c2.39,0.775,4.95-0.53,5.73-2.918
						c0.78-2.387-0.53-4.949-2.92-5.725c-1.16-0.375-2.3-0.77-3.45-1.18c-2.36-0.85-4.96,0.373-5.81,2.735
						C338.74,313.145,339.96,315.75,342.32,316.597z"/>
				</g>
				<path style="fill:#604C3F;" d="M331.07,88.75H182.63c-20.908,0-37.862,16.952-37.862,37.865v39.45l13.07,13.07l49.503-49.503
					l49.51,49.503l49.51-49.503l49.5,49.503l13.07-13.07v-39.45C368.93,105.702,351.98,88.75,331.07,88.75z"/>
				<line style="fill:none;stroke:#48B0CA;stroke-miterlimit:10;" x1="256.85" y1="190.735" x2="256.85" y2="191.745"/>
				<g>
					<path style="fill:#595758;" d="M229.64,241.728c0,17.568-14.24,31.807-31.81,31.807c-17.57,0-31.805-14.24-31.805-31.807
						c0-17.565,14.235-31.808,31.805-31.808C215.4,209.92,229.64,224.162,229.64,241.728z"/>
					<path style="fill:#FFFFFF;" d="M221.92,240.995c0,12.242-9.92,22.168-22.16,22.168c-12.25,0-22.172-9.925-22.172-22.168
						c0-12.245,9.922-22.17,22.172-22.17C212,218.825,221.92,228.75,221.92,240.995z"/>
					<circle style="fill:#D76A77;" cx="199.76" cy="240.03" r="12.53"/>
				</g>
				<g>
					<circle style="fill:#595758;" cx="319.05" cy="241.728" r="31.81"/>
					<path style="fill:#FFFFFF;" d="M294.96,240.995c0,12.242,9.92,22.168,22.16,22.168s22.17-9.925,22.17-22.168
						c0-12.245-9.93-22.17-22.17-22.17S294.96,228.75,294.96,240.995z"/>
					<circle style="fill:#D76A77;" cx="317.12" cy="240.03" r="12.53"/>
				</g>
				<g>
					<rect x="199.99" y="309.888" style="fill:#EAE9E9;" width="121.17" height="26.255"/>
					<rect x="222.2" y="309.888" style="fill:#9F9E9F;" width="7.07" height="26.255"/>
					<rect x="245.43" y="309.888" style="fill:#9F9E9F;" width="7.06" height="26.255"/>
					<rect x="270.67" y="309.888" style="fill:#9F9E9F;" width="7.07" height="26.255"/>
					<rect x="292.89" y="309.888" style="fill:#9F9E9F;" width="7.06" height="26.255"/>
				</g>
			</g>
			<g style="opacity:0.08;">
				<path style="fill:#231815;" d="M368.93,204.48v-38.415l0,0v-39.45c0-20.913-16.95-37.865-37.86-37.865h-77.53v292.83h77.53
					c20.91,0,37.86-16.952,37.86-37.865v-25.31v-45.98c17.62-1.322,31.5-16.02,31.5-33.97
					C400.43,220.503,386.55,205.803,368.93,204.48z"/>
			</g>
		</g>
	</g>
</g>
</svg>
