<?xml version="1.0" encoding="iso-8859-1"?>
<!-- Generator: Adobe Illustrator 18.0.0, SVG Export Plug-In . SVG Version: 6.00 Build 0)  -->
<!DOCTYPE svg PUBLIC "-//W3C//DTD SVG 1.1//EN" "http://www.w3.org/Graphics/SVG/1.1/DTD/svg11.dtd">
<svg version="1.1" id="_x31_" xmlns="http://www.w3.org/2000/svg" xmlns:xlink="http://www.w3.org/1999/xlink" x="0px" y="0px"
	 viewBox="0 0 512 512" style="enable-background:new 0 0 512 512;" xml:space="preserve">
<g>
	<rect style="fill:#9CD1AB;" width="512" height="512"/>
	<polygon style="opacity:0.1;fill:#231815;" points="512,199.065 512,512 234.7,512 161.23,438.527 169.317,430.437 
		124.877,386.047 190.155,320.717 144.793,275.353 255.695,164.505 366.54,53.607 	"/>
	<g>
		<polygon style="fill:#DBB17F;" points="366.54,53.62 256.005,53.62 145.46,53.62 104.37,337.435 256.005,337.435 407.63,337.435 
					"/>
		<polygon style="opacity:0.17;fill:#82552C;" points="351.79,142.558 342.025,92.985 169.98,92.985 162.325,142.558 
			242.885,142.558 		"/>
		<g>
			<polygon style="fill:#9D7958;" points="175.815,111.453 242.88,111.453 242.88,142.558 172.945,142.558 			"/>
			<polygon style="fill:#9D7958;" points="336.195,111.453 269.13,111.453 269.13,142.558 341.175,142.558 			"/>
		</g>
		<polygon style="fill:#D1AA7F;" points="389.07,386.037 124.88,386.037 104.37,337.435 407.63,337.435 		"/>
		<polygon style="fill:#DBB17F;" points="344.94,374.375 260.375,374.375 260.375,374.375 256.005,374.375 251.63,374.375 
			251.63,374.375 167.065,374.375 161.23,438.525 251.63,438.525 260.375,438.525 350.77,438.525 		"/>
		<rect x="209.345" y="276.002" style="fill:#9D7958;" width="93.31" height="7.695"/>
		<polygon style="opacity:0.36;fill:#8C6034;" points="287.71,111.453 281.275,111.453 267.67,111.453 249.205,111.453 
			240.455,228.09 267.67,228.09 281.03,249.96 312.015,248.502 		"/>
		<polygon style="fill:#DBB17F;" points="281.275,111.453 262.805,111.453 249.205,111.453 230.725,111.453 221.98,228.09 
			249.205,228.09 262.805,228.09 290.02,228.09 		"/>
		<polygon style="fill:#9D7958;" points="281.275,251.418 262.805,251.418 249.205,251.418 230.725,251.418 221.98,228.09 
			249.205,228.09 262.805,228.09 290.02,228.09 		"/>
		<polygon style="opacity:0.17;fill:#82552C;" points="407.63,337.435 366.54,53.62 261.25,53.62 260.375,438.525 350.77,438.525 
			345.995,386.037 389.07,386.037 		"/>
	</g>
</g>
</svg>
