<?xml version="1.0" encoding="iso-8859-1"?>
<!-- Generator: Adobe Illustrator 18.0.0, SVG Export Plug-In . SVG Version: 6.00 Build 0)  -->
<!DOCTYPE svg PUBLIC "-//W3C//DTD SVG 1.1//EN" "http://www.w3.org/Graphics/SVG/1.1/DTD/svg11.dtd">
<svg version="1.1" id="_x33_" xmlns="http://www.w3.org/2000/svg" xmlns:xlink="http://www.w3.org/1999/xlink" x="0px" y="0px"
	 viewBox="0 0 512 512" style="enable-background:new 0 0 512 512;" xml:space="preserve">
<g>
	<rect style="fill:#F6B597;" width="512" height="512"/>
	<polygon style="opacity:0.1;fill:#231815;" points="512,284.415 512,512 261.12,512 117.76,368.64 186.575,332.953 165.53,269.67 
		203.11,218.47 274.84,88.32 374.425,187.852 394.955,167.372 	"/>
	<g>
		<polygon style="fill:#747148;" points="244.82,134.428 237.135,88.31 274.865,88.31 267.88,135.128 		"/>
		<path style="fill:#E07945;" d="M436.285,263.005c0,98.525-80.715,155.127-180.285,155.127
			c-99.568,0-180.285-56.603-180.285-155.127c0-98.528,80.717-134.865,180.285-134.865
			C355.57,128.14,436.285,164.477,436.285,263.005z"/>
		<path style="fill:#C37749;" d="M256,418.133c34.795,0,67.275-6.938,94.825-20.135c27.62-31.15,44.93-75.707,44.93-125.213
			c0-53.555-20.26-101.32-51.915-132.577c-25.995-8.313-55.94-12.068-87.84-12.068s-61.845,3.755-87.84,12.068
			c-31.663,31.258-51.915,79.022-51.915,132.577c0,49.505,17.308,94.06,44.927,125.213C188.725,411.195,221.205,418.133,256,418.133
			z"/>
		<path style="fill:#E07945;" d="M217.695,130.125c-19.07,30.455-31.68,82.955-31.68,142.66c0,59.5,12.52,111.855,31.48,142.357
			c12.41,1.962,25.29,2.99,38.505,2.99c13.215,0,26.095-1.028,38.505-2.99c18.96-30.502,31.475-82.857,31.475-142.357
			c0-59.705-12.605-112.205-31.675-142.66c-12.35-1.332-25.16-1.985-38.305-1.985C242.845,128.14,230.045,128.793,217.695,130.125z"
			/>
		<path style="fill:#4B4A4A;" d="M319.82,315.955v18.255H293.2v-11.942c-11.41,1.818-23.53,2.75-36.095,2.75
			c-13.385,0-26.25-1.073-38.305-3.13v12.322h-26.62v-18.99c-22.35-7.598-39.915-19.452-49.537-35.118
			c1.645,43.065,26.457,73.268,62.102,87.592v-6.56h21.63v13.027c9.47,1.955,19.425,2.975,29.715,2.975
			c10.22,0,20.12-1.008,29.54-2.94v-13.062h21.625v6.64c34.81-13.925,59.32-42.97,62.1-84.333
			C359.03,297.962,341.59,308.93,319.82,315.955z"/>
		<g>
			<path style="fill:#4B4A4A;" d="M206.835,253.687c0,13.43-10.88,24.318-24.315,24.318c-13.43,0-24.32-10.888-24.32-24.318
				c0-13.43,10.89-24.317,24.32-24.317C195.955,229.37,206.835,240.258,206.835,253.687z"/>
			<circle style="fill:#4B4A4A;" cx="329.48" cy="253.687" r="24.32"/>
		</g>
		<polygon style="fill:#4B4A4A;" points="232.1,290.955 256,266.668 279.895,290.955 		"/>
		<path style="opacity:0.34;fill:#4B4A4A;" d="M323.835,134.862c-0.2-0.043-0.405-0.082-0.6-0.128
			c-3.115-0.672-6.275-1.29-9.47-1.857c-0.445-0.08-0.89-0.157-1.325-0.232c-3.375-0.58-6.775-1.115-10.235-1.577
			c-0.03-0.005-0.06-0.007-0.09-0.012c-3.59-0.48-7.215-0.9-10.895-1.257c-0.41-0.04-0.835-0.07-1.25-0.11
			c-3.025-0.28-6.07-0.523-9.14-0.728c-1.005-0.065-2.005-0.125-3.01-0.18c-0.71-0.044-1.415-0.095-2.13-0.132
			c-0.095-0.003-0.195-0.013-0.29-0.018c-1.825-0.09-3.675-0.152-5.525-0.22c-0.33-0.013-0.66-0.033-0.985-0.045l5.975-40.055
			h-18.35v329.813c2.59-0.005,5.16-0.058,7.725-0.138c0.495-0.015,0.985-0.023,1.465-0.04c0.31-0.015,0.61-0.035,0.915-0.05
			c2.195-0.087,4.37-0.207,6.545-0.352c0.56-0.04,1.13-0.068,1.69-0.107c2.595-0.193,5.165-0.433,7.725-0.705
			c0.835-0.087,1.665-0.19,2.5-0.288c1.84-0.215,3.675-0.453,5.49-0.705c0.905-0.13,1.81-0.252,2.71-0.39
			c2.365-0.36,4.715-0.75,7.05-1.183c0.965-0.18,1.925-0.382,2.89-0.575c1.505-0.295,3.005-0.605,4.495-0.935
			c1.145-0.252,2.285-0.507,3.425-0.778c1.415-0.337,2.825-0.695,4.225-1.06c1.865-0.482,3.72-0.993,5.555-1.52
			c1.15-0.335,2.31-0.665,3.46-1.017c1.31-0.405,2.615-0.823,3.91-1.252c0.94-0.31,1.87-0.633,2.805-0.958
			c2.5-0.865,4.965-1.775,7.4-2.732c0.64-0.253,1.295-0.495,1.935-0.755c1.37-0.555,2.725-1.133,4.075-1.72
			c0.755-0.328,1.51-0.663,2.26-0.998c1.36-0.607,2.71-1.222,4.045-1.86c0.005-0.003,0.015-0.005,0.015-0.005v-0.003
			c51.285-24.572,85.46-70.903,85.46-134.992C436.285,188.228,389.775,149.298,323.835,134.862z"/>
	</g>
</g>
</svg>
