<?xml version="1.0" encoding="iso-8859-1"?>
<!-- Generator: Adobe Illustrator 18.0.0, SVG Export Plug-In . SVG Version: 6.00 Build 0)  -->
<!DOCTYPE svg PUBLIC "-//W3C//DTD SVG 1.1//EN" "http://www.w3.org/Graphics/SVG/1.1/DTD/svg11.dtd">
<svg version="1.1" id="_x33_" xmlns="http://www.w3.org/2000/svg" xmlns:xlink="http://www.w3.org/1999/xlink" x="0px" y="0px"
	 viewBox="0 0 512 512" style="enable-background:new 0 0 512 512;" xml:space="preserve">
<g>
	<rect style="fill:#F6B597;" width="512" height="512"/>
	<path style="opacity:0.1;fill:#231815;" d="M512,256v256H181.555l-85.094-85.094l2.253-26.266l1.894,0.102
		c0.717-8.448,1.485-16.64,1.997-22.374c1.69-17.766,13.568-31.078,30.515-36.966c8.602-3.021,31.078-11.315,51.149-18.79
		l18.995-7.987l-0.461-2.611l11.366-5.683l2.97,1.741v-3.43c-49.04-16.761-84.545-62.393-86.541-116.614
		c-0.012,0.029-0.026,0.053-0.038,0.082c0.008-0.143,0.015-0.304,0.023-0.451c-0.05-1.474-0.177-2.928-0.177-4.413
		c0-2.099,0.051-4.147,0.154-6.195c0.768-15.514,4.25-30.31,10.035-43.878l68.198-68.147c15.309-6.554,32.205-10.138,49.92-10.138
		c30.72,0,58.88,10.752,80.947,28.774l18.33,18.33L512,256z"/>
	<g>
		<g>
			<g>
				<path style="fill:#727171;" d="M419.942,437.555H97.485c0,0,0.307-3.482,0.768-8.858c0.563-7.168,1.485-17.766,2.355-27.955
					c0.717-8.448,1.485-16.64,1.997-22.374c1.69-17.766,13.568-31.078,30.515-36.966c8.602-3.021,31.078-11.315,51.149-18.79
					c6.861-2.509,13.466-4.966,19.149-7.066c1.024-0.41,2.048-0.768,3.021-1.126c4.403-1.638,8.09-3.021,10.701-3.994
					c0.973-0.358,1.843-0.666,2.458-0.922c1.178-0.41,1.792-0.666,1.792-0.666l13.005,0.358l24.32,0.717l24.32-0.717l13.005-0.358
					c0,0,0.614,0.256,1.792,0.666c0.614,0.256,1.485,0.563,2.458,0.922c2.765,1.024,6.861,2.56,11.725,4.352
					c0.666,0.256,1.331,0.512,1.997,0.768c7.936,2.97,17.715,6.554,27.546,10.189c17.613,6.554,35.328,13.056,42.752,15.667
					c16.998,5.888,28.877,19.2,30.566,36.966C416.563,396.134,419.942,437.555,419.942,437.555z"/>
				<polygon style="fill:#838384;" points="257.587,332.39 257.587,436.941 206.438,436.941 206.438,393.472 162.355,402.022 
					177.971,325.274 184.269,322.611 203.264,314.624 205.005,313.907 206.438,314.419 217.139,318.157 				"/>
				<polygon style="fill:#838384;" points="314.455,313.895 341.465,325.27 357.1,402.03 313.04,393.495 313.04,436.945 
					261.855,436.945 261.855,332.38 				"/>
			</g>
			<rect x="217.139" y="223.642" style="fill:#CEC29B;" width="83.149" height="115.149"/>
			<rect x="239.775" y="333.795" style="fill:#E67386;" width="37.91" height="26.54"/>
			<rect x="239.775" y="357.495" style="fill:#B31E24;" width="37.91" height="8.52"/>
			<g>
				<polygon style="fill:#F1F2F1;" points="258.714,332.39 257.587,333.466 257.28,333.773 252.109,338.79 239.77,350.72 
					214.17,375.501 203.418,315.546 203.264,314.624 202.803,312.013 214.17,306.33 217.139,308.07 219.597,309.504 				"/>
				<polygon style="fill:#F1F2F1;" points="258.725,332.38 303.27,306.315 314.635,312 303.27,375.495 				"/>
			</g>
			<rect x="239.775" y="362.815" style="fill:#E67386;" width="37.91" height="74.725"/>
		</g>
		<g>
			<path style="fill:#EEEAD1;" d="M387.021,183.245c0,56.32-36.25,104.141-86.733,121.395c-5.581,1.946-11.315,3.482-17.254,4.557
				c-7.885,1.587-16.026,2.355-24.32,2.355s-16.435-0.768-24.32-2.355c-5.939-1.075-11.674-2.611-17.254-4.557
				c-49.04-16.761-84.545-62.393-86.541-116.614c-0.012,0.029-0.026,0.053-0.038,0.082c0.008-0.143,0.015-0.304,0.023-0.451
				c-0.05-1.474-0.177-2.928-0.177-4.413c0-2.099,0.051-4.147,0.154-6.195c0.051-0.102,0.051-0.154,0.102-0.154
				c39.066-92.928,130.97-25.498,178.739-99.584c16.742,52.275,54.733,51.302,74.854,79.923c0.102,0.102,0.154,0.154,0.205,0.256
				C386.15,165.837,387.021,174.438,387.021,183.245z"/>
			<path style="fill:#70665B;" d="M385.741,165.939c-20.378-29.286-56.73-25.805-73.728-79.002
				c-48.538,75.213-141.824,6.707-181.453,101.171c0.256-4.557,0.461-11.213,0.102-11.213c-0.051,0-0.051,0.051-0.102,0.154
				c0.768-15.514,4.25-30.31,10.035-43.878c12.954-30.669,37.53-55.194,68.198-68.147c15.309-6.554,32.205-10.138,49.92-10.138
				c30.72,0,58.88,10.752,80.947,28.774c6.758,5.478,12.902,11.622,18.33,18.33c13.005,15.821,22.221,34.714,26.47,55.501
				c-0.051-0.102-0.102-0.154-0.205-0.256C384.87,160.102,385.331,162.97,385.741,165.939z"/>
		</g>
		<polygon style="fill:#70665B;" points="277.465,210.625 262.795,210.625 254.65,210.625 239.985,210.625 236.725,239.91 
			253.02,239.91 264.43,239.91 280.725,239.91 		"/>
		<polygon style="fill:#E67386;" points="152.883,403.917 150.477,437.555 150.426,438.426 95.437,438.426 96.461,426.906 
			98.714,400.64 100.608,400.742 		"/>
	</g>
</g>
</svg>
