<?xml version="1.0" encoding="iso-8859-1"?>
<!-- Generator: Adobe Illustrator 18.0.0, SVG Export Plug-In . SVG Version: 6.00 Build 0)  -->
<!DOCTYPE svg PUBLIC "-//W3C//DTD SVG 1.1//EN" "http://www.w3.org/Graphics/SVG/1.1/DTD/svg11.dtd">
<svg version="1.1" id="_x33_" xmlns="http://www.w3.org/2000/svg" xmlns:xlink="http://www.w3.org/1999/xlink" x="0px" y="0px"
	 viewBox="0 0 512 512" style="enable-background:new 0 0 512 512;" xml:space="preserve">
<g>
	<rect style="fill:#CB98C3;" width="512" height="512"/>
	<polygon style="opacity:0.1;fill:#231815;" points="512,206.49 512,512 221.85,512 37.53,327.68 244.07,317.44 281.6,136.55 
		410.47,104.96 	"/>
	<g>
		<g>
			<polygon style="fill:#595758;" points="241.495,253.44 146.775,286.72 105.815,307.2 37.545,327.68 167.255,393.388 372.055,384 
				366.935,353.28 387.415,371.2 474.455,330.24 			"/>
			<polygon style="fill:#454040;" points="474.455,330.24 300.705,272.96 144.625,297.83 232.455,385.663 372.055,384 
				366.935,353.28 387.415,371.2 			"/>
			<polygon style="fill:#595758;" points="357.41,297.83 357.565,298.65 144.215,299.52 144.625,297.83 157.115,249.19 
				192.855,110.08 259.415,76.8 354.135,107.52 410.455,104.96 351.575,151.04 328.535,148.48 347.99,249.19 			"/>
			<polygon style="fill:#454040;" points="328.535,148.48 323.415,125.44 351.575,151.04 			"/>
			<polygon style="fill:#8968AB;" points="357.41,297.83 144.625,297.83 157.115,249.19 347.99,249.19 			"/>
		</g>
		<polygon style="opacity:0.08;fill:#231815;" points="474.455,330.24 356.13,291.232 347.99,249.19 328.535,148.48 351.575,151.04 
			410.455,104.96 354.135,107.52 259.415,76.8 257.315,77.85 257.315,389.26 372.055,384 366.935,353.28 387.415,371.2 		"/>
	</g>
</g>
</svg>
