<?xml version="1.0" encoding="iso-8859-1"?>
<!-- Generator: Adobe Illustrator 18.0.0, SVG Export Plug-In . SVG Version: 6.00 Build 0)  -->
<!DOCTYPE svg PUBLIC "-//W3C//DTD SVG 1.1//EN" "http://www.w3.org/Graphics/SVG/1.1/DTD/svg11.dtd">
<svg version="1.1" id="_x31_" xmlns="http://www.w3.org/2000/svg" xmlns:xlink="http://www.w3.org/1999/xlink" x="0px" y="0px"
	 viewBox="0 0 512 512" style="enable-background:new 0 0 512 512;" xml:space="preserve">
<g>
	<rect style="fill:#F6B597;" width="512" height="512"/>
	<path style="opacity:0.1;fill:#231815;" d="M512,273.306V512H268.493L119.347,362.854c-15.104-24.423-23.808-53.299-23.808-84.173
		v-45.363c0-38.554,13.568-73.933,36.25-101.581c3.994-4.966,8.346-9.626,12.954-14.131c11.264-10.752,24.013-19.917,37.99-27.085
		l0.717-0.358c21.811-11.059,46.438-17.306,72.55-17.306c26.163,0,50.79,6.247,72.55,17.306l0.614,0.307L512,273.306z"/>
	<g>
		<g>
			<path style="fill:#72B9D6;" d="M416.461,233.318v45.363c0,34.56-10.906,66.56-29.44,92.723
				c-4.25,5.939-8.858,11.571-13.824,16.896c-17.459,18.688-39.373,33.177-64.051,41.83c-0.103,0.051-0.103,0.051-0.154,0.051
				l-0.051,0.051c-16.64,5.785-34.406,8.909-52.941,8.909s-36.301-3.123-52.941-8.909l-0.051-0.051c-0.051,0-0.103,0-0.154-0.051
				c-10.957-3.84-21.35-8.807-31.027-14.797c-12.237-7.526-23.347-16.64-33.075-27.034c-4.915-5.325-9.523-10.957-13.773-16.896
				c-1.945-2.765-3.84-5.632-5.632-8.55c-15.104-24.423-23.808-53.299-23.808-84.173v-45.363c0-38.554,13.568-73.933,36.25-101.581
				c3.994-4.966,8.346-9.626,12.954-14.131c11.264-10.752,24.013-19.917,37.99-27.085l0.717-0.358
				c21.811-11.059,46.438-17.306,72.55-17.306c26.163,0,50.79,6.247,72.55,17.306l0.717,0.358
				c13.978,7.168,26.727,16.333,37.99,27.085c4.608,4.506,8.96,9.165,13.005,14.131c7.168,8.755,13.414,18.278,18.637,28.467
				C410.112,182.118,416.461,206.95,416.461,233.318z"/>
			<path style="fill:#FFFFFF;" d="M386.714,224c0-36.608-29.747-66.355-66.355-66.355c-31.13,0-57.293,21.658-64.358,50.688
				c-7.066-29.03-33.229-50.688-64.358-50.688c-36.608,0-66.355,29.747-66.355,66.355c-0.358,19.405-5.12,79.36,27.597,100.454
				c5.427,0,3.379-14.95,8.858-18.381c0.665,5.478,9.523,13.619,16.333,14.336c0-2.765,1.024-6.042,2.099-8.602
				c3.686,0.666,7.526,1.075,11.469,1.075c1.536,0,3.072-0.102,4.608-0.205c-1.485,4.966-2.611,9.574-3.277,12.237l-12.39,50.586
				c-1.69,6.912-0.102,14.234,4.301,19.814c4.403,5.632,11.111,8.857,18.227,8.857h108.544c7.117,0,13.875-3.226,18.278-8.857
				c4.352-5.581,5.939-12.902,4.25-19.814l-12.339-50.586c-0.666-2.663-1.792-7.168-3.277-12.083c0.615,0,1.229,0.051,1.792,0.051
				c3.943,0,7.783-0.409,11.469-1.075c1.075,2.56,2.099,5.837,2.099,8.602c6.81-0.717,15.667-8.858,16.333-14.336
				c5.478,3.43,3.431,18.381,8.858,18.381C391.834,303.36,387.072,243.405,386.714,224z M256,259.737l32.717,38.861L256,314.931
				l-32.717-16.333L256,259.737z"/>
			<g>
				<path style="fill:#EBCCAD;" d="M149.817,246.563c0,23.085,18.715,41.8,41.8,41.8c23.08,0,41.795-18.715,41.795-41.8V223.98
					c0-23.083-18.715-41.798-41.795-41.798c-23.085,0-41.8,18.715-41.8,41.798V246.563z"/>
				<path style="fill:#EBCCAD;" d="M278.587,246.563c0,23.085,18.715,41.8,41.795,41.8c23.085,0,41.8-18.715,41.8-41.8V223.98
					c0-23.083-18.715-41.798-41.8-41.798c-23.08,0-41.795,18.715-41.795,41.798V246.563z"/>
			</g>
			<path style="fill:#FFFFFF;" d="M326.4,114.637c-6.554,16.486-21.504,16.998-17.05,8.192c3.533-6.861,2.765-14.336-1.587-21.863
				c-6.553-11.315-37.376-12.902-37.376-12.902c-3.226,14.285-4.608,34.765-14.387,34.765c-9.779,0-11.162-20.48-14.387-34.765
				c0,0-30.874,1.587-37.376,12.902c-4.352,7.527-5.12,15.002-1.587,21.863c4.454,8.807-10.496,8.294-17.05-8.192
				c-2.56-6.4-3.84-15.309-2.15-24.474c21.811-11.059,46.438-17.306,72.55-17.306c26.163,0,50.79,6.247,72.55,17.306
				C330.24,99.328,328.96,108.237,326.4,114.637z"/>
			<g>
				<path style="fill:#FFFFFF;" d="M150.272,141.21c-3.533-1.69-10.086-3.994-18.483-9.472c3.994-4.966,8.346-9.626,12.954-14.131
					c4.762,5.478,9.626,9.882,13.67,13.363C168.602,139.827,162.048,146.79,150.272,141.21z"/>
				<path style="fill:#FFFFFF;" d="M380.253,131.725c-8.46,5.477-14.955,7.807-18.515,9.485c-11.77,5.6-18.355-1.39-8.175-10.223
					c4-3.515,8.95-7.928,13.69-13.368C371.872,122.118,376.207,126.778,380.253,131.725z"/>
			</g>
			<g>
				<path style="fill:#FFFFFF;" d="M386.997,371.402c-4.21,5.927-8.825,11.57-13.775,16.883c-6.335-9.115-13.94-15.9-19.66-20.927
					c-10.18-8.83-3.595-15.82,8.175-10.22C366.153,359.26,375.263,362.408,386.997,371.402z"/>
				<path style="fill:#FFFFFF;" d="M158.437,367.358c-5.76,5.027-13.325,11.812-19.66,20.927c-4.94-5.313-9.56-10.955-13.78-16.883
					c11.74-8.995,20.85-12.143,25.27-14.265C162.037,351.537,168.623,358.528,158.437,367.358z"/>
			</g>
			<polygon style="fill:#EBCCAD;" points="304.373,374.04 297.563,331.798 214.442,331.798 207.627,374.04 255.323,374.04 			"/>
			<path style="fill:#FFFFFF;" d="M308.917,430.23c-16.6,5.805-34.375,8.91-52.9,8.91c-18.56,0-36.335-3.105-52.935-8.91
				c20.155,2.9,42.72-3.353,42.72-5.603c0-2.737,0-22.483,0-22.483l6.13-3.392l14.31,3.392c0,0,0,19.745,0,22.483
				C266.243,426.878,288.807,433.13,308.917,430.23z"/>
			<polygon style="fill:#F1BDD7;" points="278.443,127.165 270.312,149.67 263.397,130.077 248.608,130.077 241.693,149.67 
				233.563,127.165 219.112,127.165 234.883,170.852 248.628,170.852 256.003,149.96 263.378,170.852 277.123,170.852 
				292.893,127.165 			"/>
		</g>
		<path style="opacity:0.11;fill:#3E3A39;" d="M416.461,233.318v45.363c0,34.56-10.906,66.56-29.44,92.723
			c-4.25,5.939-8.858,11.571-13.824,16.896c-17.459,18.688-39.373,33.177-64.051,41.83c-0.103,0.051-0.103,0.051-0.154,0.051
			l-0.051,0.051c-16.64,5.785-34.406,8.909-52.941,8.909V72.857c26.163,0,50.79,6.247,72.55,17.306l0.717,0.358
			c13.978,7.168,26.727,16.333,37.99,27.085c4.608,4.506,8.96,9.165,13.005,14.131c7.168,8.755,13.414,18.278,18.637,28.467
			C410.112,182.118,416.461,206.95,416.461,233.318z"/>
	</g>
</g>
</svg>
