<?xml version="1.0" encoding="iso-8859-1"?>
<!-- Generator: Adobe Illustrator 18.0.0, SVG Export Plug-In . SVG Version: 6.00 Build 0)  -->
<!DOCTYPE svg PUBLIC "-//W3C//DTD SVG 1.1//EN" "http://www.w3.org/Graphics/SVG/1.1/DTD/svg11.dtd">
<svg version="1.1" id="_x33_" xmlns="http://www.w3.org/2000/svg" xmlns:xlink="http://www.w3.org/1999/xlink" x="0px" y="0px"
	 viewBox="0 0 512 512" style="enable-background:new 0 0 512 512;" xml:space="preserve">
<g>
	<rect style="fill:#E3C134;" width="512" height="512"/>
	<polygon style="opacity:0.1;fill:#231815;" points="512,233.265 512,512 257.64,512 66.97,321.28 190.21,198.04 206.49,133.12 
		256.82,131.43 305.92,129.69 351.795,128.205 405.195,126.415 	"/>
	<g>
		<g>
			<g>
				<polyline style="fill:#727171;" points="177.625,132.39 405.62,132.39 405.62,124.375 177.625,124.375 				"/>
			</g>
			<g>
				<path style="fill:#EDC2B1;" d="M150.128,336.18c0.252,14.82-11.565,27.035-26.385,27.285
					c-14.82,0.25-27.043-11.565-27.29-26.385c-0.248-14.825,11.568-27.045,26.393-27.29
					C137.662,309.54,149.88,321.355,150.128,336.18z"/>
				<path style="fill:#EDC2B1;" d="M417.31,336.18c0.25,14.82-11.56,27.035-26.38,27.285c-14.82,0.25-27.05-11.565-27.29-26.385
					c-0.25-14.825,11.56-27.045,26.38-27.29C404.85,309.54,417.06,321.355,417.31,336.18z"/>
			</g>
			<path style="fill:#F5CEBB;" d="M397.59,301.455c1.31,78.195-61.01,142.655-139.21,143.965
				c-78.2,1.315-142.65-61.01-143.965-139.205c-1.315-78.2,61.007-142.655,139.205-143.97
				C331.82,160.93,396.27,223.255,397.59,301.455z"/>
			<path style="fill:#5E4A46;" d="M416.31,243.71c-11.18-35.415-28.05-68.005-65.37-87.655c2.53-5.67,3.92-11.67,3.92-17.875
				c0-35.415-44.26-64.125-98.86-64.125s-98.857,28.71-98.857,64.125c0,6.205,1.387,12.205,3.923,17.875
				c-37.327,19.65-54.193,52.24-65.375,87.655c-8.015,25.39-26.718,81-26.718,81l64.122,21.87
				c32.06-114.885,46.375-120.91,85.495-112.215c24.05,5.345,37.41,8.015,37.41,8.015s13.36-2.67,37.41-8.015
				c39.12-8.695,53.43-2.67,85.5,112.215l64.12-21.87C443.03,324.71,424.32,269.1,416.31,243.71z"/>
			<path style="fill:#E1B96A;" d="M255.11,114.98c-29.52,0-53.44,11.35-53.44,25.355v18.33h11.7v-13.26h11.34v13.26h12.86v-13.26
				h11.34v13.26h12.86v-13.26h11.34v13.26h12.86v-13.26h11.34v13.26h11.23v-18.33C308.54,126.33,284.62,114.98,255.11,114.98z"/>
			<path style="fill:#DD6775;" d="M393.16,127.045c0,9.105-7.38,16.475-16.48,16.475c-9.1,0-16.48-7.37-16.48-16.475
				c0-9.1,7.38-16.48,16.48-16.48C385.78,110.565,393.16,117.945,393.16,127.045z"/>
		</g>
		<path style="opacity:0.07;fill:#231815;" d="M443.03,324.71c0,0-18.71-55.61-26.72-81c-11.18-35.415-28.05-68.005-65.37-87.655
			c2.53-5.67,3.92-11.67,3.92-17.875c0-1.955-0.16-3.88-0.42-5.79h6.66c2.22,6.47,8.35,11.13,15.58,11.13
			c7.23,0,13.35-4.66,15.57-11.13h13.37v-8.015h-12.7c-1.28-7.83-8.05-13.81-16.24-13.81c-8.19,0-14.97,5.98-16.24,13.81h-7.9
			c-9.74-28.78-49.25-50.32-96.54-50.32V445.41c0.79,0,1.58,0.02,2.38,0.01c56.3-0.945,104.36-34.62,126.38-82.585
			c1.98,0.425,4.04,0.67,6.17,0.63c14.82-0.25,26.63-12.465,26.38-27.285c-0.02-0.895-0.08-1.77-0.18-2.635L443.03,324.71z"/>
	</g>
</g>
</svg>
