<?xml version="1.0" encoding="iso-8859-1"?>
<!-- Generator: Adobe Illustrator 18.0.0, SVG Export Plug-In . SVG Version: 6.00 Build 0)  -->
<!DOCTYPE svg PUBLIC "-//W3C//DTD SVG 1.1//EN" "http://www.w3.org/Graphics/SVG/1.1/DTD/svg11.dtd">
<svg version="1.1" id="_x31_" xmlns="http://www.w3.org/2000/svg" xmlns:xlink="http://www.w3.org/1999/xlink" x="0px" y="0px"
	 viewBox="0 0 512 512" style="enable-background:new 0 0 512 512;" xml:space="preserve">
<g>
	<rect style="fill:#CB98C3;" width="512" height="512"/>
	<path style="opacity:0.1;fill:#231815;" d="M512,204.8V512H238.746L111.206,384.461c-19.917-28.262-31.642-62.669-31.642-99.84
		c0-94.208,75.059-170.803,168.602-173.466l-0.051-0.051h154.266c7.117,0,13.312,0.973,18.586,2.662l22.63,22.63l30.413,30.413
		L512,204.8z"/>
	<g>
		<g>
			<path style="fill:#714E84;" d="M432.691,167.014c-20.326,17.51-24.576,34.048-20.275,45.466c1.024,2.816,1.434,4.762,1.382,6.4
				c-0.205,6.349-7.117,7.987-7.117,37.888c0,4.557-11.776-1.434-25.702-10.189c-20.275-12.698-45.158-31.13-45.158-31.13
				l-6.093-7.219l-81.562-97.075l-0.051-0.051h154.266c7.117,0,13.312,0.973,18.586,2.662c13.056,4.198,20.429,12.954,22.63,22.63
				C446.054,147.046,442.163,158.822,432.691,167.014z"/>
			<path style="fill:#805F95;" d="M426.701,284.621c0,45.261-17.357,86.426-45.722,117.35c-1.997,2.15-4.045,4.25-6.093,6.298
				c-2.099,2.099-4.25,4.096-6.451,6.042c-2.202,1.946-4.403,3.84-6.707,5.683c-4.557,3.686-9.318,7.168-14.285,10.342
				c-4.915,3.226-10.035,6.195-15.309,8.858c-3.942,2.048-7.987,3.942-12.134,5.632c-2.714,1.126-5.53,2.202-8.346,3.226
				c-2.765,0.973-5.581,1.894-8.397,2.765c-2.918,0.922-5.888,1.69-8.858,2.406c-1.434,0.358-2.867,0.717-4.301,1.024
				c-3.021,0.666-6.042,1.229-9.114,1.69c-1.178,0.205-2.355,0.41-3.533,0.563c-0.717,0.102-1.434,0.205-2.202,0.307
				c-2.509,0.307-5.069,0.563-7.629,0.768c-1.69,0.154-3.379,0.256-5.069,0.358c-1.229,0.051-2.458,0.102-3.738,0.154
				c-1.894,0.051-3.789,0.102-5.683,0.102c-4.915,0-9.728-0.205-14.541-0.614c-1.587-0.102-3.174-0.256-4.762-0.461
				c-6.349-0.666-12.595-1.741-18.688-3.123c-1.434-0.307-2.867-0.666-4.301-1.024c-3.123-0.768-6.246-1.638-9.318-2.56
				c-2.918-0.973-5.837-1.946-8.704-3.021c-1.434-0.512-2.867-1.075-4.301-1.638c-4.301-1.69-8.499-3.584-12.595-5.683
				c-6.861-3.328-13.466-7.219-19.712-11.469c-0.051-0.051-0.051-0.051-0.102-0.051c-0.87-0.563-1.741-1.126-2.56-1.741
				c-1.434-1.024-2.867-2.048-4.25-3.072c-0.154-0.154-0.307-0.307-0.512-0.41c-1.178-0.922-2.406-1.843-3.584-2.816
				c-1.178-0.922-2.355-1.894-3.533-2.867c-1.126-0.973-2.304-1.946-3.43-2.97c-1.126-0.973-2.253-1.997-3.328-3.021
				c-0.973-0.87-1.894-1.792-2.867-2.714c-1.229-1.178-2.458-2.406-3.635-3.635c-1.075-1.126-2.099-2.202-3.123-3.328
				c-1.024-1.126-2.048-2.253-3.021-3.379c-3.942-4.506-7.629-9.216-11.059-14.131c-19.917-28.262-31.642-62.669-31.642-99.84
				c0-94.208,75.059-170.803,168.602-173.466c1.638-0.051,3.328-0.051,4.966-0.051c72.55,0,134.758,44.544,160.666,107.776
				C422.093,239.155,426.701,261.325,426.701,284.621z"/>
		</g>
		<rect x="122.277" y="208.215" style="fill:#AFAFAF;" width="258.698" height="64.035"/>
		<path style="fill:#87699C;" d="M380.975,313.72H122.277v84.86c31.815,36.505,78.618,59.605,130.848,59.605
			c50.6,0,96.12-21.66,127.85-56.205V313.72z"/>
		<rect x="122.277" y="259.44" style="fill:#3E3A39;" width="258.698" height="64.035"/>
		<g>
			<path style="fill:#FFFFFF;" d="M349.835,290.79c0,14.33-11.615,25.935-25.935,25.935s-25.935-11.605-25.935-25.935
				c0-14.325,11.615-25.93,25.935-25.93S349.835,276.465,349.835,290.79z"/>
			<path style="fill:#595758;" d="M336.23,290.79c0,6.81-5.525,12.33-12.33,12.33c-6.81,0-12.325-5.52-12.325-12.33
				c0-6.805,5.515-12.325,12.325-12.325C330.705,278.465,336.23,283.985,336.23,290.79z"/>
		</g>
		<g>
			<path style="fill:#FFFFFF;" d="M205.12,290.79c0,14.33-11.615,25.935-25.932,25.935c-14.323,0-25.938-11.605-25.938-25.935
				c0-14.325,11.615-25.93,25.938-25.93C193.505,264.86,205.12,276.465,205.12,290.79z"/>
			<path style="fill:#595758;" d="M191.51,290.79c0,6.81-5.515,12.33-12.322,12.33c-6.807,0-12.33-5.52-12.33-12.33
				c0-6.805,5.523-12.325,12.33-12.325C185.995,278.465,191.51,283.985,191.51,290.79z"/>
		</g>
		<g>
			<path style="fill:#A2A2A4;" d="M258.555,227.67c4.815,4.815,4.815,12.62,0,17.43c-4.81,4.815-12.615,4.815-17.43,0
				L258.555,227.67z"/>
			<path style="fill:#C2C1C1;" d="M241.125,245.1c-4.81-4.81-4.81-12.615,0-17.43c4.815-4.815,12.62-4.815,17.43,0L241.125,245.1z"
				/>
		</g>
		<g>
			<path style="fill:#A2A2A4;" d="M324.445,227.67c4.81,4.815,4.81,12.62,0,17.43c-4.815,4.815-12.62,4.815-17.435,0L324.445,227.67
				z"/>
			<path style="fill:#C2C1C1;" d="M307.01,245.1c-4.81-4.81-4.81-12.615,0-17.43c4.815-4.815,12.62-4.815,17.435,0L307.01,245.1z"/>
		</g>
		<g>
			<path style="fill:#A2A2A4;" d="M192.67,227.67c4.815,4.815,4.815,12.62,0,17.43c-4.81,4.815-12.62,4.815-17.433,0L192.67,227.67z
				"/>
			<path style="fill:#C2C1C1;" d="M175.238,245.1c-4.813-4.81-4.813-12.615,0-17.43c4.812-4.815,12.622-4.815,17.433,0
				L175.238,245.1z"/>
		</g>
	</g>
	<path style="opacity:0.19;fill:#3E3A39;" d="M402.4,111.08c-47.55,0-101.175-5.48-151.52-0.28v347.11
		c45.7,0.405,90.935-17.07,124.16-49.785c46.74-46.135,63.585-116.65,42.56-178.94c-12.785-37.875-8.26-37.67,17.6-67.265
		C455.565,138.615,426.91,111.08,402.4,111.08z"/>
</g>
</svg>
