<?xml version="1.0" encoding="iso-8859-1"?>
<!-- Generator: Adobe Illustrator 18.0.0, SVG Export Plug-In . SVG Version: 6.00 Build 0)  -->
<!DOCTYPE svg PUBLIC "-//W3C//DTD SVG 1.1//EN" "http://www.w3.org/Graphics/SVG/1.1/DTD/svg11.dtd">
<svg version="1.1" id="_x32_" xmlns="http://www.w3.org/2000/svg" xmlns:xlink="http://www.w3.org/1999/xlink" x="0px" y="0px"
	 viewBox="0 0 512 512" style="enable-background:new 0 0 512 512;" xml:space="preserve">
<g>
	<rect style="fill:#99D4D9;" width="512" height="512"/>
	<path style="opacity:0.1;fill:#040000;" d="M512,336.691V512H223.744L100.249,388.506c-0.768-1.331-1.433-2.765-2.099-4.352
		c-1.229-3.021-2.253-6.553-3.021-10.752c-1.024-5.53-1.536-12.134-1.382-20.019c0.051-3.123,0.205-6.195,0.563-9.114l-0.256-0.256
		l0.358-0.358c1.229-11.673,4.403-21.709,8.09-30.003c7.424-16.589,16.794-25.958,16.794-25.958s6.451,6.451,12.902,18.176
		l36.557-36.557c0.768-39.782,10.803-78.592,29.798-115.353l0.307-0.563h1.178c22.323-42.906,49.767-68.864,55.04-73.626L256,80.691
		l24.064,24.064L512,336.691z"/>
	<g>
		<g>
			<g>
				<g>
					<g>
						
							<rect x="299.232" y="294.839" transform="matrix(-0.7071 -0.7071 0.7071 -0.7071 383.7022 801.4254)" style="fill:#B77821;" width="117.2" height="52.813"/>
						<g>
							<path style="fill:#FDFEFE;" d="M368.546,373.4c0.761,4.195,1.796,7.752,3.027,10.759
								c5.478,13.384,14.829,15.954,21.138,15.954c6.306,0,15.658-2.57,21.135-15.954c1.232-3.008,2.267-6.565,3.028-10.759
								c0.999-5.503,1.526-12.112,1.402-20.032c-0.247-15.793-4.131-29.196-8.801-39.696c-7.397-16.629-16.763-25.971-16.763-25.971
								s-9.368,9.342-16.766,25.971c-4.67,10.5-8.554,23.903-8.801,39.696C367.02,361.287,367.547,367.896,368.546,373.4z"/>
							<path style="fill:#D8A029;" d="M367.691,374.424l-0.155-0.84c-1.055-5.835-1.535-12.64-1.415-20.23
								c0.215-13.83,3.205-27.325,8.89-40.1l0.27-0.61h34.86l0.27,0.61c5.68,12.765,8.67,26.26,8.89,40.1
								c0.12,7.56-0.36,14.365-1.415,20.225l-0.155,0.845H367.691z"/>
							<path style="fill:#D8A029;" d="M368.546,373.4h48.328c0.999-5.503,1.526-12.112,1.402-20.032
								c-0.247-15.793-4.131-29.196-8.801-39.696h-33.529c-4.67,10.5-8.554,23.903-8.801,39.696
								C367.02,361.287,367.547,367.896,368.546,373.4z"/>
							<path style="fill:#D8A029;" d="M371.573,384.159c5.478,13.384,14.829,15.954,21.138,15.954
								c6.306,0,15.658-2.57,21.135-15.954H371.573z"/>
						</g>
					</g>
					<g>
						<polygon style="fill:#B77821;" points="214.272,298.496 176.486,336.282 144.128,368.589 131.379,381.337 94.054,344.013 
							94.412,343.654 124.416,313.651 132.198,305.869 168.755,269.312 169.83,268.237 176.947,261.12 						"/>
						<g>
							<path style="fill:#FDFEFE;" d="M144.845,353.383c0.102,5.734-0.154,10.752-0.717,15.206c-0.153,1.69-0.41,3.277-0.666,4.813
								c-0.768,4.198-1.792,7.731-3.021,10.752c-5.479,13.415-14.848,15.975-21.146,15.975c-2.867,0-6.349-0.512-9.779-2.355
								c-3.277-1.69-6.553-4.608-9.267-9.267c-0.768-1.331-1.433-2.765-2.099-4.352c-1.229-3.021-2.253-6.553-3.021-10.752
								c-1.024-5.53-1.536-12.134-1.382-20.019c0.051-3.123,0.205-6.195,0.563-9.114c0-0.205,0-0.41,0.102-0.614
								c1.229-11.673,4.403-21.709,8.09-30.003c7.424-16.589,16.794-25.958,16.794-25.958s6.451,6.451,12.902,18.176
								c1.28,2.355,2.611,4.967,3.84,7.783C140.749,324.147,144.589,337.562,144.845,353.383z"/>
							<path style="fill:#D8A029;" d="M94.276,374.429l-0.155-0.84c-1.075-5.815-1.545-12.62-1.4-20.225
								c0.063-3.615,0.245-6.545,0.573-9.22c-0.008-0.13-0.008-0.52,0.197-0.94c0.993-10.025,3.743-20.22,8.075-29.97l0.27-0.61
								h34.865l0.272,0.605c5.675,12.655,8.668,26.16,8.895,40.14c0.1,5.67-0.135,10.69-0.725,15.35
								c-0.152,1.68-0.41,3.29-0.672,4.855l-0.143,0.855H94.276z"/>
							<path style="fill:#D8A029;" d="M144.845,353.383c0.102,5.734-0.154,10.752-0.717,15.206c-0.153,1.69-0.41,3.277-0.666,4.813
								H95.129c-1.024-5.53-1.536-12.134-1.382-20.019c0.051-3.123,0.205-6.195,0.563-9.114c0-0.205,0-0.41,0.102-0.614
								c1.229-11.673,4.403-21.709,8.09-30.003h33.536C140.749,324.147,144.589,337.562,144.845,353.383z"/>
							<path style="fill:#D8A029;" d="M140.442,384.153c-5.479,13.415-14.848,15.975-21.146,15.975
								c-2.867,0-6.349-0.512-9.779-2.355c-3.277-1.69-6.553-4.608-9.267-9.267c-0.768-1.331-1.433-2.765-2.099-4.352H140.442z"/>
						</g>
					</g>
				</g>
				<ellipse style="fill:#D8A029;" cx="256" cy="405.541" rx="54.969" ry="27.484"/>
				<path style="fill:#D8A029;" d="M337.51,327.936c-0.051,0.358-0.154,0.666-0.256,1.024c-0.512,2.509-1.075,4.966-1.741,7.322
					c-0.614,2.355-1.28,4.608-1.997,6.81c-0.563,1.843-1.178,3.635-1.792,5.376c-0.768,2.099-1.536,4.096-2.355,6.042
					c-0.666,1.638-1.382,3.174-2.099,4.659c-0.41,0.922-0.87,1.792-1.331,2.662c-0.41,0.871-0.87,1.741-1.331,2.56
					c-2.765,5.12-5.786,9.574-8.909,13.517c-1.024,1.229-2.048,2.406-3.072,3.533c-2.304,2.56-4.711,4.864-7.168,6.963
					c-0.87,0.717-1.741,1.383-2.611,2.048c-0.153,0.102-0.307,0.256-0.461,0.358c-15.002,11.315-31.539,14.489-44.595,14.694
					c-0.614,0.051-1.229,0.051-1.792,0.051c-0.563,0-1.178,0-1.792-0.051c-13.056-0.205-29.645-3.431-44.595-14.746
					c-9.318-7.014-18.022-17.101-24.883-31.59c-3.174-6.656-5.99-14.234-8.243-22.887c-0.666-2.355-1.229-4.813-1.741-7.322
					c-0.102-0.358-0.205-0.666-0.256-1.024c-3.379-15.974-5.12-35.174-4.71-58.214c0-0.512,0-1.024,0.051-1.485
					c1.075-45.261,14.029-83.661,29.645-113.818c0.205-0.358,0.358-0.717,0.563-1.024c22.323-42.906,49.767-68.864,55.04-73.626
					C255.692,79.206,256,78.95,256,78.95s2.457,2.151,6.553,6.247c0.461,0.461,0.922,0.922,1.434,1.433
					c4.198,4.301,9.779,10.394,16.077,18.125c3.994,4.966,8.294,10.598,12.698,16.947c0.768,1.075,1.536,2.202,2.304,3.328
					c1.946,2.867,3.891,5.837,5.837,8.96c1.331,2.151,2.663,4.301,3.994,6.554c0.153,0.307,0.307,0.563,0.461,0.819
					c1.434,2.509,2.867,5.018,4.301,7.629c0.205,0.307,0.358,0.666,0.512,0.973c0.614,1.126,1.229,2.253,1.792,3.431h0.051
					c0.154,0.307,0.308,0.666,0.512,1.024c15.616,30.157,28.57,68.557,29.645,113.818c0.051,0.461,0.051,0.973,0.051,1.485
					C342.63,292.762,340.889,311.962,337.51,327.936z"/>
				<path style="fill:#FDFEFE;" d="M343.245,269.312v0.41c0.41,21.914-1.177,41.574-4.762,58.419l-0.154,0.819H173.67l-0.154-0.819
					c-3.584-16.845-5.171-36.506-4.762-58.419v-0.41c0.768-39.782,10.803-78.592,29.798-115.353l0.307-0.563h114.33l0.256,0.563
					c11.981,23.193,20.378,47.206,25.088,71.731c0.922,4.403,1.638,8.806,2.253,13.261c0.563,3.738,0.973,7.475,1.331,11.213
					c0.154,1.536,0.307,3.072,0.41,4.608C342.886,259.635,343.142,264.448,343.245,269.312z"/>
				<path style="fill:#FDFEFE;" d="M337.498,327.935H174.502c-3.37-15.988-5.145-35.189-4.728-58.198
					c0.833-45.881,13.933-84.821,29.685-115.325h113.083c15.751,30.504,28.851,69.443,29.685,115.325
					C342.643,292.746,340.868,311.947,337.498,327.935z"/>
				<path style="fill:#FDFEFE;" d="M327.287,359.193c-18.475,38.882-50.013,46.348-71.29,46.348
					c-21.27,0-52.808-7.466-71.283-46.348H327.287z"/>
				<path style="fill:#D8A029;" d="M256,306.022c-34.272,0-62.155-27.882-62.155-62.155c0-34.272,27.883-62.155,62.155-62.155
					c34.272,0,62.154,27.883,62.154,62.155C318.155,278.14,290.272,306.022,256,306.022z"/>
				<g style="opacity:0.2;">
					<path style="fill:#FFFFFF;" d="M267.981,187.29c-0.358-0.103-0.768-0.103-1.126-0.103c-2.304,0-4.352,1.587-4.864,3.943
						c-0.563,2.765,1.177,5.427,3.891,5.99c0.358,0.051,0.716,0.103,1.024,0.103c2.355,0,4.455-1.638,4.915-3.994
						c0.103-0.359,0.103-0.717,0.103-1.075C271.923,189.85,270.336,187.802,267.981,187.29z M249.907,191.181
						c-0.512-2.355-2.611-3.994-4.967-3.994c-0.358,0-0.666,0.051-1.024,0.103c-2.714,0.563-4.454,3.276-3.84,5.99
						c0.461,2.355,2.56,3.943,4.864,3.943c0.358,0,0.717,0,1.075-0.103c2.355-0.512,3.993-2.56,3.993-4.915
						C250.009,191.846,249.958,191.539,249.907,191.181z M289.945,197.069c-0.921-0.666-1.945-0.973-3.021-0.973
						c-1.536,0-3.072,0.717-4.045,2.048c-1.588,2.253-1.127,5.427,1.126,7.066c0.922,0.614,1.946,0.922,2.97,0.922
						c1.536,0,3.072-0.717,4.045-2.048c0.666-0.921,0.973-1.946,0.973-3.021C291.993,199.526,291.277,198.042,289.945,197.069z
						 M229.018,198.195c-0.973-1.331-2.509-2.048-4.096-2.048c-1.024,0-2.048,0.307-2.97,0.973
						c-2.202,1.638-2.714,4.762-1.075,7.014c0.973,1.383,2.509,2.048,4.045,2.048c1.024,0,2.099-0.307,2.969-0.922
						c1.382-0.973,2.099-2.56,2.099-4.096C229.99,200.141,229.683,199.066,229.018,198.195z M306.022,214.886
						c-0.922-1.638-2.611-2.509-4.352-2.509c-0.87,0-1.741,0.205-2.509,0.666c-2.407,1.382-3.226,4.506-1.844,6.912h0.051
						c0.922,1.587,2.611,2.457,4.301,2.457c0.87,0,1.741-0.205,2.56-0.666c1.587-0.922,2.509-2.611,2.509-4.301
						C306.739,216.576,306.483,215.706,306.022,214.886z M212.787,213.146c-0.768-0.461-1.638-0.666-2.509-0.666
						c-1.741,0-3.43,0.87-4.403,2.509c-1.383,2.406-0.563,5.478,1.843,6.861c0.819,0.461,1.69,0.666,2.509,0.666
						c1.741,0,3.43-0.871,4.352-2.509c0.461-0.819,0.717-1.689,0.717-2.56C215.296,215.757,214.374,214.067,212.787,213.146z
						 M313.497,237.722c-0.256-2.56-2.457-4.506-4.967-4.506c-0.205,0-0.358,0.051-0.563,0.051c-2.765,0.307-4.762,2.765-4.454,5.53
						c0.256,2.56,2.457,4.506,5.017,4.506c0.154,0,0.359,0,0.512-0.051c2.56-0.256,4.506-2.458,4.506-4.967
						C313.549,238.08,313.497,237.926,313.497,237.722z M203.981,233.37h-0.461c-2.56,0-4.762,1.894-5.069,4.506
						c-0.256,2.765,1.741,5.222,4.506,5.529h0.512c2.56,0,4.762-1.946,5.017-4.506v-0.461
						C208.486,235.878,206.592,233.677,203.981,233.37z M307.814,255.334c-0.512-0.154-1.075-0.256-1.587-0.256
						c-2.099,0-4.045,1.331-4.762,3.482c-0.87,2.611,0.615,5.478,3.226,6.349c0.564,0.154,1.075,0.205,1.587,0.205
						c2.099,0,4.096-1.331,4.762-3.482c0.153-0.512,0.256-1.024,0.256-1.587C311.296,257.946,309.965,256,307.814,255.334z
						 M210.534,258.663c-0.666-2.151-2.611-3.482-4.711-3.482c-0.563,0-1.075,0.102-1.587,0.256
						c-2.662,0.87-4.096,3.686-3.226,6.349c0.666,2.099,2.663,3.43,4.762,3.43c0.512,0,1.024-0.051,1.536-0.205
						c2.15-0.717,3.482-2.662,3.482-4.762C210.79,259.686,210.688,259.174,210.534,258.663z M298.649,275.353
						c-0.973-0.87-2.15-1.28-3.328-1.28c-1.383,0-2.765,0.564-3.789,1.69c-1.843,2.048-1.689,5.223,0.41,7.117
						c0.973,0.819,2.15,1.28,3.328,1.28c1.382,0,2.765-0.563,3.789-1.69c0.87-0.973,1.28-2.15,1.28-3.328
						C300.339,277.76,299.776,276.378,298.649,275.353z M220.518,275.814c-0.973-1.075-2.355-1.638-3.738-1.638
						c-1.229,0-2.406,0.41-3.379,1.28c-2.048,1.894-2.202,5.069-0.359,7.117c0.973,1.075,2.355,1.638,3.738,1.638
						c1.178,0,2.407-0.41,3.379-1.28c1.075-0.973,1.638-2.355,1.638-3.738C221.798,278.016,221.389,276.787,220.518,275.814z
						 M282.163,289.997c-0.819-1.843-2.663-2.97-4.608-2.97c-0.666,0-1.383,0.154-2.048,0.461c-2.509,1.126-3.687,4.096-2.509,6.656
						c0.819,1.843,2.662,2.969,4.557,2.969c0.717,0,1.434-0.153,2.099-0.461c1.843-0.819,2.969-2.663,2.969-4.608
						C282.624,291.379,282.47,290.663,282.163,289.997z M236.595,287.539c-0.666-0.307-1.383-0.461-2.048-0.461
						c-1.946,0-3.789,1.126-4.608,2.97c-1.127,2.56,0,5.529,2.56,6.656c0.666,0.307,1.331,0.461,2.048,0.461
						c1.894,0,3.738-1.126,4.557-3.021c0.307-0.666,0.461-1.331,0.461-2.048C239.565,290.202,238.438,288.358,236.595,287.539z
						 M256.102,291.635c-0.051,0-0.051,0-0.102,0h-0.051c-2.765,0.051-4.967,2.253-4.967,5.069c0,2.765,2.253,5.017,5.018,5.017
						h0.051c0.051,0,0.051,0,0.051,0s0,0,0.051,0c2.765,0,5.018-2.253,5.018-5.069C261.12,293.888,258.867,291.635,256.102,291.635z
						"/>
				</g>
				<path style="fill:#56BFC9;" d="M256,285.184c-22.782,0-41.316-18.534-41.316-41.316c0-22.781,18.534-41.316,41.316-41.316
					c22.781,0,41.315,18.534,41.315,41.316C297.316,266.649,278.782,285.184,256,285.184z"/>
				<g style="opacity:0.3;">
					<path style="fill:#FFFFFF;" d="M226.446,247.641c-3.572,0-6.467-2.895-6.467-6.467c0-19.862,16.159-36.021,36.022-36.021
						c3.572,0,6.467,2.895,6.467,6.467c0,3.572-2.895,6.467-6.467,6.467c-12.73,0-23.087,10.357-23.087,23.087
						C232.913,244.746,230.018,247.641,226.446,247.641z"/>
				</g>
				<polygon style="fill:#B77821;" points="255.993,318.563 242.1,323.928 255.993,417.698 269.885,323.928 				"/>
			</g>
		</g>
		<path style="opacity:0.06;fill:#040000;" d="M417.685,344.266l0.256-0.256l-0.313-0.313c-1.307-11.637-4.471-21.746-8.153-30.025
			c-7.397-16.629-16.764-25.971-16.764-25.971s-6.451,6.516-12.874,18.206L343.231,269.3c-0.792-39.793-10.802-78.601-29.78-115.356
			l-0.285-0.555h-1.177C287.144,105.767,256.041,79,256,78.965v354.06c30.358,0,54.968-12.305,54.968-27.484
			c0-5.42-3.181-10.459-8.598-14.717c9.315-7.004,18.026-17.128,24.917-31.631c3.169-6.668,5.946-14.281,8.227-22.922l32.33,32.33
			c0.199,1.679,0.429,3.29,0.703,4.798c0.761,4.195,1.796,7.752,3.027,10.759c5.478,13.384,14.829,15.954,21.137,15.954
			c6.307,0,15.658-2.57,21.135-15.954c1.232-3.007,2.267-6.564,3.027-10.759c0.999-5.503,1.526-12.112,1.402-20.032
			C418.227,350.228,417.999,347.212,417.685,344.266z"/>
	</g>
</g>
</svg>
