<?xml version="1.0" encoding="iso-8859-1"?>
<!-- Generator: Adobe Illustrator 18.0.0, SVG Export Plug-In . SVG Version: 6.00 Build 0)  -->
<!DOCTYPE svg PUBLIC "-//W3C//DTD SVG 1.1//EN" "http://www.w3.org/Graphics/SVG/1.1/DTD/svg11.dtd">
<svg version="1.1" id="_x32_" xmlns="http://www.w3.org/2000/svg" xmlns:xlink="http://www.w3.org/1999/xlink" x="0px" y="0px"
	 viewBox="0 0 512 512" style="enable-background:new 0 0 512 512;" xml:space="preserve">
<g>
	<rect style="fill:#99D4D9;" width="512" height="512"/>
	<path style="opacity:0.1;fill:#040000;" d="M512,226.921V512H192.41l-65.248-65.486l-17.569-17.633
		c-0.863-2.65-1.32-5.504-1.32-8.408v-10.906c0-10.498,5.89-19.62,14.522-24.156v-41.126c-22.595-4.892-40.875-17.429-40.875-41.381
		c0-32.208,21.784-54.682,43.567-58.351l2.996-18.143l-14.979,9.683c-10.206,5.657-23.053,1.988-28.74-8.205
		c-5.687-10.243-1.98-23.137,8.175-28.844l43.719-23.238c-1.016-5.81-2.133-11.161-5.179-13.658
		c-9.8-8.001-37.626-8.918-37.626-18.397c0-11.568,27.826-14.982,34.985-23.392c6.855-8.051-0.152-31.086,11.983-36.437
		c10.206-4.536,31.38,12.536,44.531,9.784c11.476-2.395,19.498-26.041,32.649-27.111c11.984-1.02,25.896,20.69,38.895,20.69
		c12.796,0,26.861-21.557,38.692-20.334c12.948,1.325,20.108,25.124,31.431,27.774c12.745,3.007,33.868-13.454,44.074-9.224
		l5.738,5.758c0.051,0.051,0.051,0.051,0.051,0.102L512,226.921z"/>
	<g>
		<g>
			<path style="fill:#E7282F;" d="M409.66,409.087v10.958c0,15.206-12.288,27.494-27.443,27.494H134.921
				c-2.918,0-5.786-0.46-8.397-1.331c-8.397-2.662-15.053-9.318-17.715-17.715c-0.87-2.663-1.331-5.529-1.331-8.447v-10.958
				c0-10.547,5.939-19.711,14.643-24.269c3.84-2.099,8.192-3.225,12.8-3.225h247.296c4.608,0,8.96,1.126,12.8,3.225
				C403.721,389.376,409.66,398.541,409.66,409.087z"/>
			<g>
				<path style="fill:#80655F;" d="M172.194,187.75c0,0.615-0.051,1.178-0.205,1.741c-0.922,5.428-4.198,10.394-9.37,13.261
					l-24.73,15.872l-10.035,6.451l-15.104,9.728c-10.291,5.683-23.245,1.997-28.979-8.243c-5.734-10.291-1.997-23.245,8.243-28.979
					l44.083-23.347l0.307-0.154l7.936-4.199c9.063-5.018,20.531-1.792,25.6,7.322C171.785,180.531,172.502,184.217,172.194,187.75z"
					/>
				<path style="fill:#80655F;" d="M354.51,202.776c-9.08-5.053-12.344-16.509-7.292-25.588c5.053-9.078,16.509-12.344,25.588-7.29
					l52.306,27.69c10.272,5.718,13.967,18.682,8.25,28.956c-5.718,10.273-18.682,13.967-28.954,8.25L354.51,202.776z"/>
			</g>
			<rect x="122.121" y="357.786" style="fill:#90816D;" width="272.896" height="32.973"/>
			<rect x="122.121" y="316.569" style="fill:#F9D584;" width="272.896" height="55.859"/>
			<rect x="122.11" y="387.095" style="fill:#F9D584;" width="272.915" height="23.811"/>
			<path style="fill:#E7282F;" d="M436.233,301.926c0,26.317-17.306,38.913-41.216,42.701c-5.478,0.87-11.315,1.28-17.408,1.28
				H146.543c-8.294,0-16.589-0.769-24.423-2.407c-22.784-4.915-41.216-17.511-41.216-41.574c0-32.359,21.965-54.938,43.93-58.624
				l3.021-18.228l8.397-50.022l0.154-0.973l3.123-18.688h238.08l2.202,13.056l0.922,5.633l8.551,50.995l3.021,18.228
				C414.268,246.989,436.233,269.568,436.233,301.926z"/>
			<g>
				<g>
					<circle style="fill:#FFFFFF;" cx="179.99" cy="253.938" r="31.502"/>
					<path style="fill:#80655F;" d="M210.656,236.791c10.181,2.081,20.119-4.483,22.201-14.662
						c2.081-10.179-4.481-20.118-14.66-22.201l-57.724-13.069c-11.518-2.355-22.766,5.073-25.121,16.591
						c-2.355,11.519,5.071,22.766,16.591,25.121L210.656,236.791z"/>
				</g>
				<g>
					<circle style="fill:#FFFFFF;" cx="337.148" cy="253.938" r="31.502"/>
					<circle style="fill:#3B2F2C;" cx="179.99" cy="253.938" r="12.6"/>
					<circle style="fill:#3B2F2C;" cx="337.147" cy="253.938" r="12.601"/>
					<path style="fill:#80655F;" d="M306.481,236.791c-10.181,2.081-20.119-4.483-22.202-14.662
						c-2.081-10.179,4.483-20.118,14.662-22.201l57.722-13.069c11.52-2.355,22.768,5.073,25.123,16.591
						c2.357,11.519-5.071,22.766-16.591,25.121L306.481,236.791z"/>
				</g>
			</g>
			<g>
				<path style="fill:#80655F;" d="M309.517,275.687c-2.946,0-5.819,0.317-8.588,0.916c-3.379-20.344-21.058-35.853-42.36-35.853
					c-21.303,0-38.982,15.51-42.361,35.853c-2.769-0.599-5.64-0.916-8.588-0.916c-22.31,0-40.396,18.085-40.396,40.395
					c0,22.31,18.086,40.394,40.396,40.394c19.224,0,31.856-8.002,50.949-8.002c19.092,0,31.726,8.002,50.948,8.002
					c22.311,0,40.395-18.085,40.395-40.394C349.913,293.772,331.829,275.687,309.517,275.687z"/>
				<circle style="fill:#CD2939;" cx="216.754" cy="323.914" r="14.845"/>
				<circle style="fill:#CD2939;" cx="296.638" cy="323.914" r="14.846"/>
			</g>
			<g>
				<path style="fill:#64524D;" d="M421.743,142.029c0,9.523-28.057,10.445-37.939,18.483c-1.997,1.638-3.174,4.506-3.994,7.936
					c-0.41,1.434-0.717,2.97-0.973,4.609c-1.177,6.195-2.048,13.107-5.017,17.715c-1.331,2.048-3.072,3.635-5.376,4.506
					c-5.478,2.099-13.927-2.099-22.477-5.991c-0.307-0.102-0.614-0.256-0.922-0.409c-7.014-3.072-13.978-5.837-19.456-4.659
					c-5.171,1.075-9.472,6.861-13.824,12.8c-5.018,6.81-10.189,13.926-16.896,14.592c-2.765,0.256-5.632-0.768-8.551-2.458
					c-9.369-5.529-19.558-18.124-28.979-18.124c-8.857,0-18.33,11.11-27.238,16.998c-3.533,2.355-7.014,3.891-10.291,3.584
					c-6.912-0.666-12.134-8.192-17.357-15.206c-4.198-5.734-8.346-11.111-13.363-12.186c-4.813-1.024-10.752,0.973-16.896,3.533
					c-0.87,0.41-1.741,0.819-2.663,1.178c-8.857,3.994-17.664,8.5-23.296,6.349c-1.792-0.717-3.226-1.792-4.403-3.226
					c-3.43-4.096-4.506-10.752-5.581-16.999c-0.051-0.256-0.102-0.563-0.153-0.819c-1.024-5.837-2.151-11.213-5.222-13.722
					c-9.882-8.038-37.939-8.96-37.939-18.483c0-11.622,28.058-15.053,35.277-23.501c6.912-8.089-0.154-31.231,12.083-36.607
					c10.291-4.557,31.642,12.595,44.902,9.83c11.571-2.406,19.661-26.162,32.922-27.238c12.083-1.024,26.112,20.787,39.219,20.787
					c12.902,0,27.085-21.657,39.014-20.429c13.056,1.331,20.275,25.242,31.693,27.904c12.851,3.021,34.15-13.517,44.442-9.267
					c0.102,0.051,0.154,0.051,0.256,0.102c2.611,1.178,4.352,3.174,5.53,5.683c0.051,0.051,0.051,0.051,0.051,0.102
					c4.301,9.114,1.485,24.73,7.066,30.566C393.583,128.512,421.743,131.226,421.743,142.029z"/>
			</g>
		</g>
		<path style="opacity:0.06;fill:#171716;" d="M395.017,357.786v-13.158c23.91-3.789,41.216-16.384,41.216-42.701
			c0-32.359-21.965-54.938-43.93-58.624l-3.018-18.213l15.123,9.704c10.272,5.717,23.236,2.023,28.954-8.25
			c5.717-10.273,2.022-23.237-8.25-28.956l-44.378-23.492l-0.003-0.015l-0.922-5.633c0.819-3.43,1.997-6.298,3.994-7.936
			c9.882-8.038,37.939-8.96,37.939-18.483c0-10.803-28.16-13.517-36.352-22.068c-5.581-5.836-2.765-21.452-7.066-30.566
			c0-0.051,0-0.051-0.051-0.102c-1.177-2.509-2.918-4.505-5.53-5.683c-0.102-0.051-0.153-0.051-0.256-0.102
			c-10.291-4.25-31.59,12.287-44.442,9.267c-11.417-2.662-18.637-26.573-31.693-27.904c-11.553-1.19-25.216,19.026-37.786,20.306
			v362.362h123.648c15.155,0,27.443-12.288,27.443-27.494v-10.958c0-10.547-5.939-19.711-14.643-24.269v-12.39V357.786z"/>
	</g>
</g>
</svg>
