<?xml version="1.0" encoding="iso-8859-1"?>
<!-- Generator: Adobe Illustrator 18.0.0, SVG Export Plug-In . SVG Version: 6.00 Build 0)  -->
<!DOCTYPE svg PUBLIC "-//W3C//DTD SVG 1.1//EN" "http://www.w3.org/Graphics/SVG/1.1/DTD/svg11.dtd">
<svg version="1.1" id="_x32_" xmlns="http://www.w3.org/2000/svg" xmlns:xlink="http://www.w3.org/1999/xlink" x="0px" y="0px"
	 viewBox="0 0 512 512" style="enable-background:new 0 0 512 512;" xml:space="preserve">
<g>
	<rect style="fill:#827C6D;" width="512" height="512"/>
	<polygon style="opacity:0.1;fill:#231815;" points="512,213.71 512,512 216.575,512 130.765,426.19 163.072,393.885 95.692,326.45 
		105.42,236.29 325.22,96.925 392.6,164.3 427.62,129.33 	"/>
	<g>
		<path style="fill:#ECC79F;" d="M437.985,165.145c-0.005-10.89-2.355-21.34-6.585-30.715c-4.23-9.385-10.31-17.715-17.78-24.555
			c-7.68-7.025-19.605-6.495-26.63,1.185c-7.03,7.68-6.5,19.61,1.18,26.635c3.73,3.41,6.765,7.575,8.855,12.215
			c2.085,4.645,3.25,9.76,3.255,15.25v-0.01l0,0v0.03c0,5.19-1.04,10.04-2.915,14.48c-2.81,6.655-7.55,12.38-13.505,16.395
			c-5.96,4.02-13.02,6.345-20.795,6.355l-30.92,0.02c-10.41,0-18.845,8.445-18.84,18.86c0,10.41,8.445,18.845,18.86,18.84
			l30.92-0.015c10.29-0.005,20.19-2.105,29.165-5.905c13.465-5.71,24.86-15.185,32.93-27.135c8.05-11.895,12.775-26.345,12.8-41.735
			l0,0l0.005-0.16l0,0v-0.03V165.145z"/>
		<polygon style="fill:#F4D1A6;" points="166.82,134.72 136.41,134.72 143.02,157.2 136.41,179.675 166.82,179.675 165.497,157.2 		
			"/>
		<polygon style="fill:#F4D1A6;" points="337.975,179.675 368.38,179.675 361.77,157.2 368.38,134.72 337.975,134.72 339.295,157.2 
					"/>
		<path style="fill:#F4D1A6;" d="M152.32,285.53V166.62c0-55.255,44.795-100.055,100.055-100.055
			c55.26,0,100.06,44.8,100.06,100.055v118.91H152.32z"/>
		<polygon style="fill:#F9D5B0;" points="373.995,333.385 130.755,333.385 146.26,298.99 151.188,288.025 152.32,285.53 
			352.435,285.53 353.565,288.025 358.495,298.99 		"/>
		<rect x="130.755" y="333.385" style="fill:#F4D1A6;" width="243.24" height="92.805"/>
		<polygon style="fill:#DBB289;" points="257.595,133.27 257.595,204.92 234.07,204.92 223.375,218.825 268.29,218.825 
			265.085,142.895 		"/>
		<path style="fill:#6E5A4E;" d="M275.575,247.105c0,10.81-11.035,19.575-24.65,19.575c-13.61,0-24.65-8.765-24.65-19.575
			c0-10.815,11.04-19.58,24.65-19.58C264.54,227.525,275.575,236.29,275.575,247.105z"/>
		<path style="fill:#6E5A4E;" d="M226.275,163.725c0,12.01-9.74,21.75-21.75,21.75c-12.015,0-21.75-9.74-21.75-21.75
			c0-12.015,9.735-21.755,21.75-21.755C216.535,141.97,226.275,151.71,226.275,163.725z"/>
		<path style="fill:#6E5A4E;" d="M320.53,163.725c0,12.01-9.735,21.75-21.75,21.75c-12.01,0-21.75-9.74-21.75-21.75
			c0-12.015,9.74-21.755,21.75-21.755C310.795,141.97,320.53,151.71,320.53,163.725z"/>
		<path style="fill:#F4D1A6;" d="M123.815,303.06c-3.727-3.415-6.76-7.575-8.847-12.22c-2.087-4.65-3.245-9.76-3.25-15.25
			c0.005-5.195,1.042-10.045,2.92-14.49c2.808-6.655,7.558-12.38,13.508-16.395c5.967-4.015,13.03-6.34,20.808-6.35h30.922
			c10.41,0,18.85-8.44,18.85-18.85c0-10.41-8.44-18.85-18.85-18.85h-30.922c-10.295,0-20.197,2.095-29.173,5.895
			c-13.475,5.705-24.88,15.18-32.957,27.125c-8.077,11.945-12.815,26.46-12.807,41.915c-0.005,10.885,2.345,21.335,6.57,30.72
			c4.222,9.38,10.3,17.72,17.767,24.56c7.68,7.03,19.605,6.505,26.632-1.17c7.035-7.68,6.51-19.605-1.167-26.64H123.815z"/>
		<g>
			<path style="opacity:0.06;fill:#6E5A4E;" d="M431.4,134.43c-4.23-9.385-10.31-17.715-17.78-24.555
				c-7.68-7.025-19.605-6.495-26.63,1.185c-7.03,7.68-6.5,19.61,1.18,26.635c3.73,3.41,6.765,7.575,8.855,12.215
				c2.085,4.645,3.25,9.76,3.255,15.25v0.02c0,5.19-1.04,10.04-2.915,14.48c-2.81,6.655-7.55,12.38-13.505,16.395
				c-5.96,4.02-13.02,6.345-20.795,6.355l-10.63,0.01v-22.745h15.945l-6.61-22.475l6.61-22.48h-21.17
				c-13.325-39.61-50.735-68.155-94.835-68.155c-6.795,0-13.43,0.685-19.845,1.975c31.125,9.63,54.65,53.725,54.65,106.7v110.29
				l18.85,49.301v91.36h67.965v-92.805l-21.56-47.855v-45.405l10.65-0.01c10.29-0.005,20.19-2.105,29.165-5.905
				c13.465-5.71,24.86-15.185,32.93-27.135c8.05-11.895,12.775-26.345,12.8-41.735l0,0l0.005-0.16v-0.03v-0.005
				C437.98,154.255,435.63,143.805,431.4,134.43z"/>
		</g>
		<path style="fill:#E7C197;" d="M373.995,338.78h-242.7c-0.193,0-0.363,0-0.54,0.015v10.93c0.178,0.015,0.348,0.015,0.54,0.015
			h242.7V338.78z"/>
		<polygon style="fill:#E7C197;" points="358.495,298.99 146.26,298.99 151.188,288.025 353.565,288.025 		"/>
		<path style="fill:#F4D1A6;" d="M383.61,337.01c0,4.4-3.57,7.975-7.975,7.975h-244.34c-4.405,0-7.975-3.575-7.975-7.975l0,0
			c0-4.405,3.57-7.975,7.975-7.975h244.34C380.04,329.035,383.61,332.605,383.61,337.01L383.61,337.01z"/>
		<path style="fill:#F4D1A6;" d="M358.235,286.255c0,4.405-3.575,7.975-7.98,7.975h-197.21c-4.405,0-7.975-3.57-7.975-7.975l0,0
			c0-4.4,3.57-7.975,7.975-7.975h197.21C354.66,278.28,358.235,281.855,358.235,286.255L358.235,286.255z"/>
	</g>
</g>
</svg>
