<?xml version="1.0" encoding="iso-8859-1"?>
<!-- Generator: Adobe Illustrator 18.0.0, SVG Export Plug-In . SVG Version: 6.00 Build 0)  -->
<!DOCTYPE svg PUBLIC "-//W3C//DTD SVG 1.1//EN" "http://www.w3.org/Graphics/SVG/1.1/DTD/svg11.dtd">
<svg version="1.1" id="_x32_" xmlns="http://www.w3.org/2000/svg" xmlns:xlink="http://www.w3.org/1999/xlink" x="0px" y="0px"
	 viewBox="0 0 512 512" style="enable-background:new 0 0 512 512;" xml:space="preserve">
<g>
	<rect style="fill:#FDFCE8;" width="512" height="512"/>
	<path style="opacity:0.1;fill:#231815;" d="M512,204.8V512H221.798l-75.981-75.981l-27.75-27.699v-9.165
		c0-9.933,5.222-18.637,13.107-23.501c-0.563-3.43-0.819-6.912-0.819-10.496v-79.77c-15.258-0.051-27.648-12.493-27.648-27.75
		v-22.63c0-15.309,12.442-27.75,27.75-27.75h4.608v-59.341c0,0-2.97-0.102-7.066-1.434l33.485-33.485
		c6.502,7.27,11.366,12.749,11.366,12.749h166.246c0,0,36.71-40.96,42.854-48.282c0.461-0.512,0.973-0.922,1.536-1.126l20.07,20.019
		L512,204.8z"/>
	<g>
		<g>
			<path style="fill:#EF8DB0;" d="M197.537,432.311c-37.035,0-67.165-30.13-67.165-67.165v-89.552
				c0-37.038,30.13-67.165,67.165-67.165h116.92c37.035,0,67.165,30.128,67.165,67.165v89.552c0,37.035-30.13,67.165-67.165,67.165
				H197.537z"/>
			<path style="fill:#AF8289;" d="M351.772,365.146c0,20.605-16.705,37.315-37.31,37.315h-116.92
				c-20.605,0-37.315-16.71-37.315-37.315v-89.552c0-20.607,16.71-37.315,37.315-37.315h116.92c20.605,0,37.31,16.708,37.31,37.315
				V365.146z"/>
			<path style="fill:#EF8DB0;" d="M381.963,77.446c-6.131,7.36-42.841,48.292-42.841,48.292h-73.61h-19.01h-73.62
				c0,0-36.715-40.932-42.84-48.292c-6.135-7.357-28.2,13.487-23.29,41.692c4.895,28.208,28.295,28.775,28.295,28.775v82.187
				h111.456h19.01h111.445v-82.187c0,0,23.39-0.568,28.305-28.775C410.157,90.933,388.098,70.089,381.963,77.446z"/>
			<path style="fill:#F5F4F8;" d="M208.382,312.613c0,7.566-6.135,13.698-13.7,13.698l0,0c-7.56,0-13.695-6.132-13.695-13.698
				v-33.917c0-7.568,6.135-13.698,13.695-13.698l0,0c7.565,0,13.7,6.13,13.7,13.698V312.613z"/>
			<path style="fill:#F5F4F8;" d="M331.012,310.006c0,7.566-6.135,13.696-13.7,13.696l0,0c-7.56,0-13.695-6.13-13.695-13.696
				v-33.917c0-7.568,6.135-13.7,13.695-13.7l0,0c7.565,0,13.7,6.132,13.7,13.7V310.006z"/>
			<path style="fill:#F5F4F8;" d="M211.247,387.813c0,6.923-5.61,12.533-12.534,12.533l0,0c-6.916,0-12.531-5.61-12.531-12.533
				v-31.03c0-6.923,5.615-12.533,12.531-12.533l0,0c6.924,0,12.534,5.61,12.534,12.533V387.813z"/>
			<path style="fill:#F5F4F8;" d="M325.822,387.813c0,6.923-5.605,12.533-12.53,12.533l0,0c-6.915,0-12.535-5.61-12.535-12.533
				v-31.03c0-6.923,5.62-12.533,12.535-12.533l0,0c6.925,0,12.53,5.61,12.53,12.533V387.813z"/>
			<g>
				<path style="fill:#DE6085;" d="M381.552,207.274h-24.64c-6.775-10.218-18.365-16.96-31.545-16.96
					c-13.17,0-24.765,6.742-31.54,16.96h-32.04h-11.57h-32.045c-6.775-10.218-18.36-16.96-31.545-16.96
					c-13.17,0-24.76,6.742-31.535,16.96h-24.64c-15.32,0-27.74,12.418-27.74,27.732v22.623c0,15.317,12.42,27.735,27.74,27.735
					h119.765h11.57h119.765c15.315,0,27.735-12.418,27.735-27.735v-22.623C409.287,219.691,396.867,207.274,381.552,207.274z"/>
				<path style="fill:#A45571;" d="M325.367,242.494c-7.91,0-14.345-6.438-14.345-14.348c0-7.915,6.435-14.35,14.345-14.35
					c7.915,0,14.356,6.435,14.356,14.35C339.723,236.056,333.282,242.494,325.367,242.494z"/>
			</g>
			<path style="fill:#DE6085;" d="M261.208,371.428h-10.411H145.808c-15.316,0-27.735,12.418-27.735,27.735v9.148
				c0,15.316,12.42,27.732,27.735,27.732h104.989h10.411h104.98c15.319,0,27.734-12.417,27.734-27.732v-9.148
				c0-15.317-12.415-27.735-27.734-27.735H261.208z"/>
			<g>
				<path style="fill:#564236;" d="M339.802,161.226h15.921l-5.151,6.977c0.666,1.483,1.046,3.105,1.046,4.822
					c0,6.526-5.285,11.82-11.816,11.82c-6.52,0-11.809-5.295-11.809-11.82C327.993,166.514,333.282,161.226,339.802,161.226z"/>
			</g>
			<path style="fill:#A45571;" d="M186.627,242.494c-7.91,0-14.345-6.438-14.345-14.348c0-7.915,6.435-14.35,14.345-14.35
				c7.92,0,14.355,6.435,14.355,14.35C200.982,236.056,194.547,242.494,186.627,242.494z"/>
			<g>
				<path style="fill:#564236;" d="M172.202,161.226h-15.92l5.15,6.977c-0.67,1.483-1.05,3.105-1.05,4.822
					c0,6.526,5.285,11.82,11.82,11.82c6.515,0,11.805-5.295,11.805-11.82C184.007,166.514,178.717,161.226,172.202,161.226z"/>
			</g>
		</g>
		<path style="opacity:0.08;fill:#564236;" d="M381.552,207.274h-4.595v-59.36c0,0,23.39-0.568,28.305-28.775
			c4.894-28.205-17.165-49.05-23.3-41.692c-6.131,7.36-42.841,48.292-42.841,48.292h-73.61h-6.025v310.305h1.72h104.98
			c15.319,0,27.734-12.417,27.734-27.732v-9.148c0-9.982-5.285-18.702-13.195-23.587c0.535-3.407,0.895-6.875,0.895-10.43v-79.788
			c15.29-0.04,27.665-12.437,27.665-27.73v-22.623C409.287,219.691,396.867,207.274,381.552,207.274z"/>
	</g>
</g>
</svg>
