<?xml version="1.0" encoding="iso-8859-1"?>
<!-- Generator: Adobe Illustrator 18.0.0, SVG Export Plug-In . SVG Version: 6.00 Build 0)  -->
<!DOCTYPE svg PUBLIC "-//W3C//DTD SVG 1.1//EN" "http://www.w3.org/Graphics/SVG/1.1/DTD/svg11.dtd">
<svg version="1.1" id="_x31_" xmlns="http://www.w3.org/2000/svg" xmlns:xlink="http://www.w3.org/1999/xlink" x="0px" y="0px"
	 viewBox="0 0 512 512" style="enable-background:new 0 0 512 512;" xml:space="preserve">
<g>
	<rect style="fill:#F6B597;" width="512" height="512"/>
	<polygon style="opacity:0.1;fill:#231815;" points="512,200.655 512,512 265.265,512 187.39,434.125 306.635,423.68 
		274.79,391.785 71.323,188.365 209.41,176.285 178.483,145.36 138.24,81.205 154.88,54.325 264.96,164.405 370.33,58.985 	"/>
	<g>
		<g>
			<path style="fill:#DBD0C4;" d="M294.22,427.665h-48.475v30.75h48.475c8.485,0,15.375-6.88,15.375-15.37
				C309.595,434.56,302.705,427.665,294.22,427.665z"/>
			<path style="fill:#E6DCD0;" d="M212.225,427.665c-8.48,0-15.37,6.895-15.37,15.38c0,8.49,6.89,15.37,15.37,15.37h33.52v-30.75
				H212.225z"/>
		</g>
		<path style="fill:#E7CBAE;" d="M199.595,118.435c-28.705,0-57.395-34.16-46.465-60.125c4.095-9.55-1.368-12.29-12.302-2.725
			c-10.925,9.575-31.435,65.59,35.535,95.65L199.595,118.435z"/>
		<path style="fill:#5E5143;" d="M68.4,137.915c10.255-2.735,50.563-6.84,81.988,10.935c8.612,4.87,12.982,6.845,20.503-0.69
			c12.315-12.31,0.49,60.815-5.473,60.815c-8.198,0-28.69,0-43.72,0c-23.235,0-44.867-12.63-54.672-24.595
			C54.728,169.345,41.86,144.99,68.4,137.915z"/>
		<g>
			<path style="fill:#5E5143;" d="M199.555,111.88c-0.24,0-0.59,0-0.83,0c-13.93,0-19,6.34-24.068,17.735
				c-5.06,11.39-19.347,56.815-22.8,64.57c-5.065,11.405-5.045,24.07-5.045,40.53c0,16.465,0,80.295,0,99.29
				c0,8.325,5.363,17.37,13.833,25.76c1.705,1.7,3.515,3.365,5.333,4.99C274.045,254.91,224.545,142.47,199.555,111.88z"/>
			<path style="fill:#F1EBE6;" d="M199.555,111.88c24.99,30.59,74.49,143.03-33.577,252.875c9.753,8.73,20.078,16.38,20.078,21.18
				c0,10.13-5.055,17.73-5.055,31.655c0,13.93,12.44,23.5,34.89,23.5c11.4,0,44.895,0,44.895,0V111.88
				C245.84,111.88,213.89,111.88,199.555,111.88z"/>
		</g>
		<g>
			<path style="fill:#DEBD9D;" d="M306.93,118.435c28.7,0,57.4-34.16,46.46-60.125c-4.105-9.55,1.37-12.29,12.295-2.725
				c10.94,9.575,31.435,65.59-35.52,95.65L306.93,118.435z"/>
			<path style="fill:#796A56;" d="M349.82,240.2c0.515,1.465,0.84,3,0.84,4.64c0,7.92-6.43,14.36-14.35,14.36
				c-7.93,0-14.355-6.44-14.355-14.36c0-0.335,0.085-0.66,0.11-0.985C332.425,235.25,342.92,238.1,349.82,240.2z"/>
			<g>
				<path style="fill:#E6DCD0;" d="M337.735,145.285c-2.375-6.8-4.485-12.54-5.88-15.67c-5.065-11.395-10.125-17.735-24.05-17.735
					c-13.945,0-46.86,0-62.06,0v329.21c0,0,33.485,0,44.885,0c22.455,0,34.895-9.57,34.895-23.5c0-11.195-3.235-18.315-4.52-25.935
					C234.665,277.88,297.55,165.94,337.735,145.285z"/>
				<path style="fill:#514438;" d="M345.88,359.765c8.465-8.39,13.835-17.435,13.835-25.76c0-18.995,0-82.825,0-99.29
					c0-16.46,0.015-29.125-5.05-40.53c-2.5-5.62-10.69-31.005-16.93-48.9c-40.185,20.655-103.07,132.595-16.73,246.37
					c-0.32-1.855-0.54-3.73-0.54-5.72C320.465,380.235,335.02,370.545,345.88,359.765z"/>
			</g>
		</g>
		<path style="fill:#796A56;" d="M90.262,178.91c-4.788-4.785-6.83-19.14,5.468-17.755c12.302,1.35,43.73,13.65,43.73,19.12
			C139.46,185.745,114.422,203.075,90.262,178.91z"/>
		<path style="fill:#514438;" d="M443.61,137.915c-10.26-2.735-50.57-6.84-82,10.935c-8.605,4.87-12.985,6.845-20.5-0.69
			c-12.32-12.31-0.485,60.815,5.48,60.815c8.19,0,28.68,0,43.71,0c23.235,0,44.875-12.63,54.675-24.595
			C457.275,169.345,470.135,144.99,443.61,137.915z"/>
		<path style="fill:#796A56;" d="M421.73,178.91c4.795-4.785,6.835-19.14-5.46-17.755c-12.3,1.35-43.73,13.65-43.73,19.12
			C372.54,185.745,397.585,203.075,421.73,178.91z"/>
		<g>
			<path style="fill:#231815;" d="M156.698,240.2c-0.505,1.465-0.838,3-0.838,4.64c0,7.92,6.428,14.36,14.355,14.36
				c7.918,0,14.345-6.44,14.345-14.36c0-0.335-0.07-0.66-0.105-0.985C174.095,235.25,163.597,238.1,156.698,240.2z"/>
			<path style="fill:#231815;" d="M349.82,240.2c0.515,1.465,0.84,3,0.84,4.64c0,7.92-6.43,14.36-14.35,14.36
				c-7.93,0-14.355-6.44-14.355-14.36c0-0.335,0.085-0.66,0.11-0.985C332.425,235.25,342.92,238.1,349.82,240.2z"/>
		</g>
		<g>
			<path style="fill:#3E3A39;" d="M215.835,394.07c12.555-4.835,14.875,24.47,8.065,26.895
				C211.34,425.45,204.175,398.545,215.835,394.07z"/>
			<path style="fill:#3E3A39;" d="M286.33,394.07c-12.56-4.835-14.885,24.47-8.07,26.895
				C290.815,425.45,297.995,398.545,286.33,394.07z"/>
		</g>
	</g>
</g>
</svg>
