<?xml version="1.0" encoding="iso-8859-1"?>
<!-- Generator: Adobe Illustrator 18.0.0, SVG Export Plug-In . SVG Version: 6.00 Build 0)  -->
<!DOCTYPE svg PUBLIC "-//W3C//DTD SVG 1.1//EN" "http://www.w3.org/Graphics/SVG/1.1/DTD/svg11.dtd">
<svg version="1.1" id="_x33_" xmlns="http://www.w3.org/2000/svg" xmlns:xlink="http://www.w3.org/1999/xlink" x="0px" y="0px"
	 viewBox="0 0 512 512" style="enable-background:new 0 0 512 512;" xml:space="preserve">
<g>
	<rect style="fill:#99D4D9;" width="512" height="512"/>
	<path style="opacity:0.08;fill:#231815;" d="M512,237.056V512H298.496L183.091,396.595l-10.65-10.598l-49.101-49.101l0.102-0.102
		l74.598-74.598l16.486-16.486l30.976-30.976l45.466-45.466l48.026-48.026c7.936,4.966,15.411,10.65,22.323,16.947
		c7.424-6.144,16.947-9.882,27.341-9.882c6.912,0,13.414,1.638,19.2,4.608l12.083,12.032l6.81,6.81c0.051,0,0.051,0.051,0.051,0.102
		L512,237.056z"/>
	<g>
		<g>
			<g>
				<circle style="fill:#AC7D38;" cx="123.366" cy="171.103" r="42.773"/>
				<circle style="fill:#F5A75B;" cx="123.365" cy="171.103" r="22.328"/>
			</g>
			<g>
				<path style="fill:#AC7D38;" d="M431.411,171.11c0,1.741-0.102,3.482-0.307,5.171c-0.154,1.178-0.358,2.304-0.563,3.43
					c-0.102,0.614-0.256,1.229-0.41,1.792c-0.051,0.205-0.102,0.461-0.154,0.666c-0.563,1.946-1.178,3.789-1.946,5.581
					c-0.512,1.28-1.126,2.509-1.792,3.738c-0.358,0.666-0.717,1.331-1.126,1.946c-0.717,1.126-1.434,2.202-2.202,3.226
					c-0.358,0.512-0.768,0.973-1.126,1.434c-0.922,1.126-1.894,2.202-2.918,3.226c-0.41,0.41-0.819,0.819-1.229,1.178
					c-1.126,1.075-2.304,2.099-3.584,2.97c-0.768,0.614-1.587,1.178-2.458,1.69c-0.87,0.563-1.741,1.075-2.662,1.587
					c-0.87,0.512-1.792,0.922-2.714,1.382c-5.325,2.406-11.264,3.738-17.562,3.738c-10.496,0-20.122-3.738-27.546-10.086
					c-9.318-7.782-15.258-19.558-15.258-32.666c0-13.261,5.99-25.088,15.462-32.922c7.424-6.144,16.947-9.882,27.341-9.882
					c6.912,0,13.414,1.638,19.2,4.608c5.222,2.56,9.83,6.246,13.466,10.65c0.717,0.87,1.382,1.741,2.048,2.611
					c0.819,1.126,1.587,2.304,2.253,3.482c0.41,0.717,0.768,1.382,1.126,2.099c0.051,0,0.051,0.051,0.051,0.102
					c0.154,0.307,0.307,0.614,0.461,0.922c0.461,0.87,0.819,1.792,1.178,2.714c0.563,1.382,1.024,2.816,1.434,4.25
					c0.256,0.87,0.461,1.792,0.666,2.714c0,0.102,0.051,0.205,0.051,0.358c0.154,0.614,0.256,1.178,0.307,1.792
					c0.154,1.024,0.307,2.048,0.358,3.123C431.36,168.858,431.411,169.984,431.411,171.11z"/>
				<circle style="fill:#F5A75B;" cx="388.634" cy="171.103" r="22.329"/>
			</g>
		</g>
		<g>
			<path style="fill:#AC7D38;" d="M412.416,253.798c0,2.048-0.051,4.147-0.154,6.195c-0.051,1.638-0.102,3.328-0.256,4.966
				c-0.102,1.638-0.256,3.226-0.41,4.813c-0.102,1.331-0.256,2.611-0.461,3.942c-0.102,1.126-0.256,2.253-0.461,3.379
				c-0.051,0.614-0.154,1.178-0.256,1.69c-0.154,0.922-0.307,1.792-0.461,2.662c-0.307,1.741-0.614,3.482-1.024,5.222
				c-0.358,1.741-0.768,3.533-1.229,5.274c-0.358,1.587-0.819,3.123-1.229,4.659c-0.051,0.205-0.102,0.358-0.154,0.512
				c-0.512,1.741-1.024,3.43-1.587,5.12c-0.154,0.563-0.358,1.126-0.563,1.69c-0.819,2.458-1.69,4.864-2.611,7.219
				c-0.154,0.41-0.307,0.768-0.461,1.126c-0.666,1.638-1.382,3.277-2.099,4.915c-0.717,1.587-1.434,3.174-2.202,4.762
				c-0.768,1.587-1.587,3.174-2.406,4.71c-1.024,1.946-2.048,3.891-3.174,5.786c-0.666,1.126-1.382,2.253-2.048,3.379
				c-0.922,1.485-1.843,2.97-2.816,4.403c-1.229,1.843-2.458,3.635-3.789,5.427c-0.768,1.075-1.536,2.099-2.304,3.123
				c-1.178,1.536-2.355,3.021-3.584,4.506c-1.024,1.229-2.048,2.406-3.072,3.584c-2.304,2.662-4.71,5.222-7.219,7.731
				c-1.229,1.229-2.458,2.406-3.686,3.533c-5.069,4.762-10.496,9.165-16.179,13.21c-1.434,1.024-2.867,2.048-4.352,2.97
				c-2.714,1.792-5.478,3.482-8.294,5.12c-1.126,0.666-2.202,1.28-3.328,1.843c-0.666,0.358-1.28,0.717-1.946,1.024
				c0,0.051,0,0.051,0,0.051c-21.709,11.366-46.387,17.818-72.602,17.818s-50.893-6.451-72.602-17.818c0,0,0,0,0-0.051
				c-0.666-0.307-1.28-0.666-1.946-1.024c-1.69-0.922-3.379-1.843-5.018-2.816c-1.331-0.819-2.714-1.638-3.994-2.458
				c-19.661-12.442-36.301-29.082-48.742-48.742c-0.102-0.154-0.205-0.307-0.256-0.461c-15.104-24.064-23.859-52.531-23.859-82.995
				c0-15.155,2.15-29.798,6.195-43.674c1.894-6.656,4.301-13.107,7.066-19.354c6.042-13.722,13.978-26.419,23.552-37.734
				c4.403-5.274,9.216-10.24,14.285-14.848C178.483,112.845,215.398,97.382,256,97.382c30.515,0,58.982,8.755,82.995,23.859
				c7.936,4.966,15.411,10.65,22.323,16.947c5.069,4.608,9.882,9.574,14.285,14.848c5.581,6.605,10.65,13.722,15.053,21.197
				c3.174,5.325,6.042,10.854,8.499,16.538c2.765,6.246,5.12,12.698,7.066,19.302v0.051c0.614,1.997,1.126,4.045,1.638,6.093
				c0.358,1.434,0.666,2.867,0.973,4.301c0.563,2.406,1.024,4.864,1.434,7.322c0.154,1.075,0.358,2.15,0.512,3.277
				c0.563,3.84,0.973,7.68,1.229,11.622c0.154,1.536,0.205,3.123,0.256,4.659C412.365,249.549,412.416,251.648,412.416,253.798z"/>
			<path style="fill:#DE9A51;" d="M328.949,395.918c0,10.318-8.365,18.682-18.682,18.682H201.733
				c-10.318,0-18.681-8.363-18.681-18.682l0,0c0-10.318,8.363-18.681,18.681-18.681h108.535
				C320.584,377.237,328.949,385.6,328.949,395.918L328.949,395.918z"/>
			<path style="fill:#F5A75B;" d="M327.843,330.264v-23.829c21.216-13.023,35.369-36.435,35.369-63.155
				c0-40.899-33.155-74.053-74.053-74.053c-11.922,0-23.183,2.821-33.16,7.824c-9.977-5.004-21.237-7.824-33.159-7.824
				c-40.898,0-74.055,33.155-74.055,74.053c0,24.817,12.21,46.782,30.949,60.219v25.305c-10.15,5.575-17.685,25.142-17.685,36.056
				c0,12.82,10.393,23.212,23.21,23.212h134.845c12.819,0,23.212-10.392,23.212-23.212
				C343.318,354.756,336.858,337.23,327.843,330.264z"/>
			<g>
				<circle style="fill:#514A33;" cx="235.552" cy="327.283" r="8.29"/>
				<circle style="fill:#514A33;" cx="276.447" cy="327.283" r="8.289"/>
			</g>
			<g>
				<path style="fill:#564236;" d="M309.257,237.755h17.127l-5.544,7.497c0.717,1.593,1.127,3.343,1.127,5.189
					c0,7.017-5.691,12.71-12.71,12.71c-7.013,0-12.694-5.693-12.694-12.71C296.564,243.44,302.244,237.755,309.257,237.755z"/>
				<path style="fill:#564236;" d="M202.743,237.755h-17.128l5.545,7.497c-0.719,1.593-1.13,3.343-1.13,5.189
					c0,7.017,5.694,12.71,12.712,12.71c7.011,0,12.693-5.693,12.693-12.71C215.436,243.44,209.754,237.755,202.743,237.755z"/>
			</g>
		</g>
		<g style="opacity:0.1;">
			<path style="fill:#231815;" d="M176.441,388.446c2.282,1.352,4.603,2.647,6.959,3.884c-0.227,1.162-0.348,2.361-0.348,3.589
				c0,10.318,8.363,18.682,18.681,18.682h108.535c10.317,0,18.682-8.363,18.682-18.682c0-1.228-0.123-2.426-0.349-3.589
				c49.814-26.158,83.797-78.38,83.797-138.549c0-15.162-2.166-29.817-6.191-43.682c14.855-6.706,25.201-21.637,25.201-38.995
				c0-10.499-3.791-20.111-10.069-27.555L176.441,388.446z"/>
		</g>
	</g>
</g>
</svg>
