<?xml version="1.0" encoding="iso-8859-1"?>
<!-- Generator: Adobe Illustrator 18.0.0, SVG Export Plug-In . SVG Version: 6.00 Build 0)  -->
<!DOCTYPE svg PUBLIC "-//W3C//DTD SVG 1.1//EN" "http://www.w3.org/Graphics/SVG/1.1/DTD/svg11.dtd">
<svg version="1.1" id="_x31_" xmlns="http://www.w3.org/2000/svg" xmlns:xlink="http://www.w3.org/1999/xlink" x="0px" y="0px"
	 viewBox="0 0 512 512" style="enable-background:new 0 0 512 512;" xml:space="preserve">
<g>
	<rect style="fill:#EBE5D3;" width="512" height="512"/>
	<polygon style="opacity:0.1;fill:#231815;" points="512,189.695 512,512 237.62,512 139.265,413.645 177.305,375.6 
		194.815,349.795 101.683,256.665 100.71,170.29 103.425,169.575 67.585,133.735 97.28,125.95 110.95,108.85 160.102,154.675 
		219.135,139.16 289.845,209.865 315.34,172.285 286.515,143.46 293.94,136.035 301.365,128.615 328.45,155.75 437.605,115.3 	"/>
	<g>
		<g>
			<polygon style="fill:#3E3A39;" points="253.985,365.625 223.09,422.04 145.178,422.04 106.228,368.31 94.135,340.105 
				130.405,356.22 166.675,360.25 216.37,336.075 258.015,336.075 			"/>
			<polygon style="fill:#2D2D2D;" points="258.015,365.625 288.91,422.04 366.815,422.04 405.77,368.31 417.86,340.105 
				381.595,356.22 345.325,360.25 295.62,336.075 253.985,336.075 			"/>
		</g>
		<g>
			<polygon style="fill:#F3CA89;" points="256,182.945 215.7,280.33 190.18,280.33 176.745,317.27 198.24,352.19 256,362.94 			"/>
			<polygon style="fill:#EDBC75;" points="256,182.945 296.29,280.33 321.82,280.33 335.25,317.27 313.76,352.19 256,362.94 			"/>
		</g>
		<g>
			<path style="fill:#3E3A39;" d="M224.435,141.3l-159.85-5.37C64.585,135.93,75.333,51.305,224.435,141.3z"/>
			<path style="fill:#2D2D2D;" d="M287.565,141.3l159.85-5.37C447.415,135.93,436.665,51.305,287.565,141.3z"/>
		</g>
		<g>
			<path style="fill:none;" d="M394.935,171.62c-9.64-9.62-22.835-15.535-37.525-15.54c-14.685,0.005-27.88,5.92-37.515,15.54
				c-9.62,9.635-15.535,22.83-15.54,37.515c0.005,14.685,5.92,27.885,15.54,37.52c9.635,9.615,22.83,15.535,37.515,15.535
				c14.69,0,27.885-5.92,37.525-15.535c9.615-9.635,15.53-22.835,15.54-37.52C410.465,194.45,404.55,181.255,394.935,171.62z"/>
			<path style="fill:none;" d="M154.582,156.08c-14.685,0.005-27.88,5.92-37.517,15.54c-9.618,9.635-15.533,22.83-15.54,37.515
				c0.008,14.685,5.922,27.885,15.54,37.52c9.637,9.615,22.832,15.535,37.517,15.535c14.69,0,27.883-5.92,37.517-15.535
				c9.62-9.635,15.535-22.835,15.54-37.52c-0.005-14.685-5.92-27.88-15.54-37.515C182.465,162,169.272,156.085,154.582,156.08z"/>
			<path style="fill:#4A4949;" d="M229.05,205.78c-0.855-19.23-9.015-36.64-21.75-49.36c-13.46-13.47-32.167-21.84-52.718-21.83
				c-20.553-0.01-39.26,8.36-52.712,21.83c-13.477,13.46-21.84,32.165-21.84,52.715c0,20.555,8.363,39.26,21.84,52.72
				c13.452,13.47,32.16,21.84,52.712,21.825c20.55,0.015,39.258-8.355,52.718-21.825c10.615-10.615,18.05-24.495,20.725-39.96H256
				V205.78H229.05z M192.1,246.655c-9.635,9.615-22.827,15.535-37.517,15.535c-14.685,0-27.88-5.92-37.517-15.535
				c-9.618-9.635-15.533-22.835-15.54-37.52c0.008-14.685,5.922-27.88,15.54-37.515c9.637-9.62,22.832-15.535,37.517-15.54
				c14.69,0.005,27.883,5.92,37.517,15.54c9.62,9.635,15.535,22.83,15.54,37.515C207.635,223.82,201.72,237.02,192.1,246.655z"/>
			<path style="fill:#2D2D2D;" d="M410.13,156.42c-13.46-13.47-32.165-21.84-52.72-21.83c-20.55-0.01-39.255,8.36-52.71,21.83
				c-12.74,12.72-20.905,30.13-21.755,49.36H256v16.115h27.975c2.675,15.465,10.1,29.345,20.725,39.96
				c13.455,13.47,32.16,21.84,52.71,21.825c20.555,0.015,39.26-8.355,52.72-21.825c13.475-13.46,21.84-32.165,21.835-52.72
				C431.97,188.585,423.605,169.88,410.13,156.42z M394.935,246.655c-9.64,9.615-22.835,15.535-37.525,15.535
				c-14.685,0-27.88-5.92-37.515-15.535c-9.62-9.635-15.535-22.835-15.54-37.52c0.005-14.685,5.92-27.88,15.54-37.515
				c9.635-9.62,22.83-15.535,37.515-15.54c14.69,0.005,27.885,5.92,37.525,15.54c9.615,9.635,15.53,22.83,15.54,37.515
				C410.465,223.82,404.55,237.02,394.935,246.655z"/>
		</g>
	</g>
</g>
</svg>
