<?xml version="1.0" encoding="iso-8859-1"?>
<!-- Generator: Adobe Illustrator 18.0.0, SVG Export Plug-In . SVG Version: 6.00 Build 0)  -->
<!DOCTYPE svg PUBLIC "-//W3C//DTD SVG 1.1//EN" "http://www.w3.org/Graphics/SVG/1.1/DTD/svg11.dtd">
<svg version="1.1" id="_x33_" xmlns="http://www.w3.org/2000/svg" xmlns:xlink="http://www.w3.org/1999/xlink" x="0px" y="0px"
	 viewBox="0 0 512 512" style="enable-background:new 0 0 512 512;" xml:space="preserve">
<g>
	<rect style="fill:#525252;" width="512" height="512"/>
	<path style="opacity:0.1;fill:#231815;" d="M512,255.181V512H274.125l-64.205-64.205l-68.352-68.352l-10.496-10.496l-14.592-14.643
		L86.426,324.25l-17.51-17.511l56.217-125.798c0,0,19.661-59.034,26.88-82.125l18.278-18.278c3.84,0.461,7.629,2.355,10.598,5.376
		c8.294,8.243,41.369,49.613,41.369,49.613h67.482c0,0,33.075-41.369,41.369-49.613c2.048-2.099,4.506-3.635,7.117-4.557
		l23.808,23.808l95.232,95.283L512,255.181z"/>
	<g>
		<g>
			<path style="fill:#D3CDBD;" d="M322.81,388.282c0,23.965-19.425,43.393-43.39,43.393h-46.84c-23.96,0-43.39-19.427-43.39-43.393
				l0,0c0-23.965,19.43-43.392,43.39-43.392h46.84C303.385,344.89,322.81,364.317,322.81,388.282L322.81,388.282z"/>
			<polygon style="fill:#DBDFEA;" points="253.747,387.584 256,386.509 258.253,387.584 			"/>
			<path style="fill:#DBDFEA;" d="M450.918,324.25h-34.663v34.406l-29.593-6.195l-10.342,29.645l-27.546-12.441l-13.773,26.214
				l-12.186-7.014l-0.051-0.051l-15.104-8.704l-17.511-10.086l-7.833,3.789l-4.096,1.997l-6.246,2.969l-0.051,0.051L256,386.509
				l-4.045-1.946l-8.09-3.891l-0.051-0.051l-9.574-4.608l-4.557-2.201l-7.833-3.789l-18.637,10.752l-14.029,8.09l-12.186,7.014
				l-13.773-26.214l-21.658,9.779l-5.888,2.662l-4.608-13.158l-5.734-16.486l-8.857,1.843l-20.736,4.352V324.25H61.082l7.834-17.511
				l56.217-125.798c0,0,19.661-59.034,26.88-82.125c0.87-2.816,1.587-5.12,2.048-6.707c2.611-9.267,9.472-12.595,16.23-11.571
				c3.84,0.461,7.629,2.355,10.598,5.376c8.294,8.243,41.369,49.613,41.369,49.613h67.482c0,0,33.075-41.369,41.369-49.613
				c2.048-2.099,4.506-3.635,7.117-4.557c7.731-2.816,16.64-0.103,19.712,10.752c0.768,2.611,2.202,7.219,4.096,13.056
				c8.243,26.01,24.832,75.776,24.832,75.776L450.918,324.25z"/>
			<g>
				<g>
					<polygon style="fill:#FEFFFF;" points="200.205,156.855 173.345,121.727 163.015,156.855 					"/>
				</g>
				<g>
					<polygon style="fill:#FEFFFF;" points="311.795,156.855 338.655,121.727 348.985,156.855 					"/>
				</g>
			</g>
			<path style="fill:#FEFFFF;" d="M256,387.595h24.795c0,0,20.81,0.825,36.785-15.152c19.285-19.285,26.755-59.41,26.755-59.41
				c17.045-2.583,48.98-50.69,13.945-82.48c-37.19-33.75-97.115,2.41-90.225,60.267v56.795l10.95,30.337L256,380.707v1.375
				l-23.01-2.753l10.955-30.337v-56.795c6.885-57.86-53.035-94.02-90.23-60.268c-35.03,31.79-3.1,79.898,13.945,82.48
				c0,0,7.475,40.122,26.755,59.407c15.98,15.98,36.785,15.153,36.785,15.153H256V387.595z"/>
			<g>
				<g>
					<path style="fill:#564236;" d="M198.595,272.89h-14.17l4.585,6.215c-0.595,1.32-0.935,2.762-0.935,4.292
						c0,5.81,4.705,10.523,10.52,10.523c5.8,0,10.51-4.712,10.51-10.523C209.105,277.597,204.395,272.89,198.595,272.89z"/>
				</g>
				<g>
					<path style="fill:#564236;" d="M313.405,272.89h14.17l-4.58,6.215c0.59,1.32,0.93,2.762,0.93,4.292
						c0,5.81-4.705,10.523-10.52,10.523c-5.8,0-10.51-4.712-10.51-10.523C302.895,277.597,307.605,272.89,313.405,272.89z"/>
				</g>
			</g>
			<path style="fill:#71605B;" d="M276.595,372.612c-4.385,0-20.595,0-20.595,0s-16.215,0-20.595,0
				c-12.27,0-20.15,14.895-10.51,27.165c12.015,15.3,23.215,15.773,31.105,15.773c7.885,0,19.085-0.473,31.105-15.773
				C296.75,387.507,288.865,372.612,276.595,372.612z"/>
		</g>
		<path style="opacity:0.23;fill:#71605B;" d="M450.918,324.25h-34.663v34.406l-29.593-6.195l-10.342,29.645l-27.546-12.441
			l-13.773,26.214l-12.186-7.014v-0.051h-0.051c0,0.717-0.051,1.485-0.051,2.202c-0.102,1.485-0.256,2.918-0.512,4.352
			c-0.205,1.28-0.461,2.56-0.768,3.789c-0.103,0.205-0.154,0.461-0.205,0.717c-0.154,0.563-0.307,1.127-0.512,1.69
			c-1.178,3.584-2.765,6.963-4.762,10.086c-0.563,0.922-1.178,1.792-1.792,2.611c-3.789,5.069-8.653,9.216-14.182,12.237
			c-1.69,0.87-3.431,1.69-5.223,2.355c-0.819,0.358-1.638,0.614-2.457,0.87c-1.229,0.358-2.458,0.717-3.687,0.973
			c-2.97,0.614-6.042,0.973-9.216,0.973h-27.443V135.526h37.786c0,0,33.075-41.369,41.369-49.613
			c2.048-2.099,4.506-3.635,7.117-4.557c7.731-2.816,16.64-0.103,19.712,10.752c0.768,2.611,2.202,7.219,4.096,13.056
			c8.243,26.01,24.832,75.776,24.832,75.776L450.918,324.25z"/>
	</g>
</g>
</svg>
