<?xml version="1.0" encoding="iso-8859-1"?>
<!-- Generator: Adobe Illustrator 18.0.0, SVG Export Plug-In . SVG Version: 6.00 Build 0)  -->
<!DOCTYPE svg PUBLIC "-//W3C//DTD SVG 1.1//EN" "http://www.w3.org/Graphics/SVG/1.1/DTD/svg11.dtd">
<svg version="1.1" id="_x32_" xmlns="http://www.w3.org/2000/svg" xmlns:xlink="http://www.w3.org/1999/xlink" x="0px" y="0px"
	 viewBox="0 0 512 512" style="enable-background:new 0 0 512 512;" xml:space="preserve">
<g>
	<rect style="fill:#9CD1AB;" width="512" height="512"/>
	<polygon style="opacity:0.1;fill:#231815;" points="512,287.795 512,512 257.69,512 168.96,423.27 179.25,416.46 107.52,344.73 
		240.335,257.075 360.805,136.652 	"/>
	<g>
		<g>
			<path style="fill:#E4DDE0;" d="M256,102.48c-107.17,0-162.243,86.037-162.243,175.643c0,33.6,5.54,63.28,23.818,77.4
				c15.65,12.095,50.008,30.27,50.008,59.14v5.885c0,5.007,4.062,9.065,9.07,9.065h21.753c5.01,0,9.065-4.058,9.065-9.065v-25.1
				c2.11-1.227,4.05-2.317,5.785-3.21c0,0.07-0.02,0.135-0.02,0.207v28.103c0,5.007,4.05,9.065,9.06,9.065h21.755
				c5.01,0,9.075-4.058,9.075-9.065v-28.103c0-0.912-0.18-1.773-0.435-2.603h6.615c-0.25,0.83-0.43,1.69-0.43,2.603v28.103
				c0,5.007,4.065,9.065,9.075,9.065h21.755c5.01,0,9.06-4.058,9.06-9.065v-28.103c0-0.072-0.02-0.137-0.02-0.207
				c1.735,0.892,3.675,1.982,5.785,3.21v25.1c0,5.007,4.055,9.065,9.06,9.065h21.77c4.995,0,9.06-4.058,9.06-9.065v-5.885
				c0-28.87,34.355-47.045,50.01-59.14c18.27-14.12,23.815-43.8,23.815-77.4C418.245,188.517,363.175,102.48,256,102.48z"/>
			<path style="fill:#D2CFD3;" d="M256,102.48v287.363h3.305c-0.25,0.83-0.43,1.69-0.43,2.603v28.103
				c0,5.007,4.065,9.065,9.075,9.065h21.755c5.01,0,9.06-4.058,9.06-9.065v-28.103c0-0.072-0.02-0.137-0.02-0.207
				c1.735,0.892,3.675,1.982,5.785,3.21v25.1c0,5.007,4.055,9.065,9.06,9.065h21.77c4.995,0,9.06-4.058,9.06-9.065v-5.885
				c0-28.87,34.355-47.045,50.01-59.14c18.27-14.12,23.815-43.8,23.815-77.4C418.245,188.517,363.175,102.48,256,102.48z"/>
			<polygon style="fill:#424040;" points="257.49,316.078 226.23,356.27 257.49,348.825 			"/>
			<polygon style="fill:#302A2A;" points="257.49,316.078 288.75,356.27 257.49,348.825 			"/>
			<path style="fill:#4F4D4D;" d="M148.83,290.033c0,21.783,17.662,39.443,39.445,39.443c21.785,0,39.44-17.66,39.44-39.443V281.1
				c0-21.783-17.655-39.445-39.44-39.445c-21.783,0-39.445,17.662-39.445,39.445V290.033z"/>
			<path style="fill:#3D3737;" d="M287.26,290.033c0,21.783,17.66,39.443,39.445,39.443c21.78,0,39.45-17.66,39.45-39.443V281.1
				c0-21.783-17.67-39.445-39.45-39.445c-21.785,0-39.445,17.662-39.445,39.445V290.033z"/>
			<path style="fill:#424040;" d="M161.597,302.8v-8.932c0-21.783,17.657-39.442,39.448-39.442c7.62,0,14.71,2.195,20.735,5.935
				c-6.96-11.213-19.34-18.705-33.505-18.705c-21.783,0-39.445,17.662-39.445,39.445v8.933c0,14.163,7.49,26.547,18.705,33.502
				C163.795,317.505,161.597,310.418,161.597,302.8z"/>
			<path style="fill:#302A2A;" d="M300.025,302.8v-8.932c0-21.783,17.66-39.442,39.45-39.442c7.61,0,14.71,2.195,20.735,5.94
				c-6.95-11.215-19.34-18.71-33.505-18.71c-21.785,0-39.445,17.662-39.445,39.445v8.933c0,14.165,7.495,26.55,18.71,33.505
				C302.22,317.508,300.025,310.418,300.025,302.8z"/>
		</g>
		<g>
			<path style="fill:#C8C2CA;" d="M323.58,346.89c0,0,43.005,5.375,60.48-29.567C381.37,341.513,357.18,372.425,323.58,346.89z"/>
			<path style="fill:#D2CFD3;" d="M195.9,346.89c0,0-43.008,5.375-60.48-29.567C138.107,341.513,162.3,372.425,195.9,346.89z"/>
		</g>
	</g>
</g>
</svg>
