<?xml version="1.0" encoding="iso-8859-1"?>
<!-- Generator: Adobe Illustrator 18.0.0, SVG Export Plug-In . SVG Version: 6.00 Build 0)  -->
<!DOCTYPE svg PUBLIC "-//W3C//DTD SVG 1.1//EN" "http://www.w3.org/Graphics/SVG/1.1/DTD/svg11.dtd">
<svg version="1.1" id="_x31_" xmlns="http://www.w3.org/2000/svg" xmlns:xlink="http://www.w3.org/1999/xlink" x="0px" y="0px"
	 viewBox="0 0 512 512" style="enable-background:new 0 0 512 512;" xml:space="preserve">
<g>
	<rect style="fill:#CB98C3;" width="512" height="512"/>
	<polygon style="opacity:0.1;fill:#231815;" points="512,201.575 512,512 160.615,512 65.74,417.125 370.33,122.88 348.67,38.245 	
		"/>
	<g>
		<g>
			<path style="fill:#333333;" d="M267.33,150.4c0,6.755-5.47,12.23-12.23,12.23c-6.76,0-12.23-5.475-12.23-12.23
				c0-6.755,5.47-12.23,12.23-12.23C261.86,138.17,267.33,143.645,267.33,150.4z"/>
			<g>
				<path style="fill:#424242;" d="M119.74,279.3h133.8V145.49C179.65,145.49,119.74,205.4,119.74,279.3z"/>
				<path style="fill:#333333;" d="M253.54,145.49V279.3h133.81C387.35,205.4,327.45,145.49,253.54,145.49z"/>
			</g>
			<g>
				<polygon points="150.76,266.26 121.975,401.545 253.54,401.545 253.54,266.26 				"/>
				<polygon style="fill:#1E1E1E;" points="372.39,266.26 253.54,266.26 253.54,401.545 401.18,401.545 				"/>
			</g>
			<g>
				<polygon style="fill:#424242;" points="89.15,268.995 140.72,287.22 154.625,247.875 103.055,229.655 				"/>
				<polygon style="fill:#424242;" points="69.295,407.35 122.185,407.35 130.555,370.355 132.725,360.76 140.65,325.74 
					142.825,316.15 153.44,269.23 126.995,251.96 103.16,316.15 99.595,325.74 86.59,360.76 83.025,370.355 				"/>
				<polygon style="fill:#231815;" points="132.725,360.76 86.59,360.76 83.025,370.355 130.555,370.355 				"/>
				<polygon style="fill:#231815;" points="121.905,407.53 69.295,407.53 65.73,417.125 119.735,417.125 				"/>
				<polygon style="fill:#231815;" points="142.825,316.15 103.16,316.15 99.595,325.74 140.65,325.74 				"/>
			</g>
			<g>
				<polygon style="fill:#595758;" points="422.85,268.995 371.28,287.22 357.37,247.875 408.95,229.655 				"/>
				<polygon style="fill:#595758;" points="442.71,407.35 389.82,407.35 381.45,370.355 379.28,360.76 371.35,325.74 369.18,316.15 
					358.56,269.23 385.01,251.96 408.84,316.15 412.41,325.74 425.42,360.76 428.97,370.355 				"/>
				<polygon style="fill:#231815;" points="381.45,370.355 428.97,370.355 425.42,360.76 379.28,360.76 				"/>
				<polygon style="fill:#231815;" points="392.27,417.125 446.27,417.125 442.71,407.53 390.1,407.53 				"/>
				<polygon style="fill:#231815;" points="371.35,325.74 412.41,325.74 408.84,316.15 369.18,316.15 				"/>
			</g>
			<g>
				<path style="fill:#888888;" d="M144.835,266.355c0,29.31,48.955,53.065,109.345,53.065v-53.065H144.835z"/>
				<path style="fill:#747272;" d="M254.18,266.355v53.065c60.39,0,109.35-23.755,109.35-53.065H254.18z"/>
			</g>
		</g>
		<rect x="80.7" y="398.68" style="fill:#E89214;" width="10.07" height="5.76"/>
		<rect x="101.325" y="398.68" style="fill:#E89214;" width="10.07" height="5.76"/>
		<rect x="397.76" y="398.68" style="fill:#E89214;" width="10.08" height="5.76"/>
		<rect x="418.39" y="398.68" style="fill:#E89214;" width="10.08" height="5.76"/>
		<g>
			<path style="fill:#EDDE6E;" d="M218.18,203.88c-46.565,0-87.58-23.725-111.63-59.745c11.235,63.735,66.875,112.15,133.83,112.15
				c4.44,0,8.83-0.225,13.16-0.64v-56.49C242.28,202.23,230.42,203.88,218.18,203.88z"/>
			<path style="fill:#EAD73C;" d="M376.27,120.39c0-30.94-10.33-59.455-27.74-82.3c2.46,10.155,3.76,20.76,3.76,31.67
				c0,61.82-41.84,113.875-98.75,129.395v56.49C322.42,249.025,376.27,190.995,376.27,120.39z"/>
		</g>
		<g>
			<path style="fill:#EDDE6E;" d="M218.18,203.88c-46.565,0-87.58-23.725-111.63-59.745c11.235,63.735,66.875,112.15,133.83,112.15
				c4.44,0,8.83-0.225,13.16-0.64v-56.49C242.28,202.23,230.42,203.88,218.18,203.88z"/>
			<path style="fill:#EAD73C;" d="M376.27,120.39c0-30.94-10.33-59.455-27.74-82.3c2.46,10.155,3.76,20.76,3.76,31.67
				c0,61.82-41.84,113.875-98.75,129.395v56.49C322.42,249.025,376.27,190.995,376.27,120.39z"/>
		</g>
		<g>
			<path style="fill:#888888;" d="M178.29,186.06c7.43-6.975,15.34-12.205,23.03-16.145c11.53-5.89,22.57-8.855,30.7-10.33
				c4.07-0.74,7.41-1.1,9.71-1.285c1.15-0.09,2.05-0.135,2.64-0.155c0.3-0.01,0.52-0.015,0.67-0.02
				c0.07-0.005,0.12-0.005,0.16-0.005h0.02h0.01v-0.41v0.41l0,0v-0.41v0.41l-0.01-2.12v2.12h0.01l-0.01-2.12v2.12
				c1.73,0,3.13-1.395,3.13-3.12c0-1.72-1.4-3.115-3.13-3.115c-0.18,0-10.04,0.01-23.82,3.705c-6.9,1.845-14.78,4.615-22.92,8.775
				c-8.14,4.17-16.55,9.73-24.46,17.145c-1.255,1.175-1.315,3.15-0.14,4.41C175.055,187.17,177.03,187.235,178.29,186.06z"/>
		</g>
	</g>
</g>
</svg>
