<?xml version="1.0" encoding="iso-8859-1"?>
<!-- Generator: Adobe Illustrator 18.0.0, SVG Export Plug-In . SVG Version: 6.00 Build 0)  -->
<!DOCTYPE svg PUBLIC "-//W3C//DTD SVG 1.1//EN" "http://www.w3.org/Graphics/SVG/1.1/DTD/svg11.dtd">
<svg version="1.1" id="_x33_" xmlns="http://www.w3.org/2000/svg" xmlns:xlink="http://www.w3.org/1999/xlink" x="0px" y="0px"
	 viewBox="0 0 512 512" style="enable-background:new 0 0 512 512;" xml:space="preserve">
<g>
	<rect style="fill:#E3C134;" width="512" height="512"/>
	<path style="opacity:0.1;fill:#231815;" d="M371.302,109.414c0,0-0.051-0.051-0.051-0.102l-25.498-25.498
		c-2.355,3.686-10.138,15.002-18.995,27.802c-15.411,22.323-34.355,49.357-34.355,49.357H248.32l-7.424,7.424L187.699,115.2
		l-5.018-5.018l-26.163-26.163c-9.165,6.656-20.838,26.931-20.07,57.549c0.051,2.816,0.154,5.53,0.307,8.09
		c1.843,37.734,8.806,47.77,8.806,47.77s-15.104,20.275-29.03,54.886l20.232,20.216l-37.179,37.179l-3.994,26.624l1.178,1.178
		l0.358,0.358l2.611,2.611l67.994,67.994l1.69,1.69l-7.066,7.014L257.229,512h14.08h194.15H512V250.061L371.302,109.414z"/>
	<g>
		<g>
			<path style="fill:#EAEFEE;" d="M256.002,385.502l-72.252-13.649c5.63,19.267,13.646,58.599,72.252,58.599
				c58.601,0,66.622-39.332,72.247-58.599L256.002,385.502z"/>
			<path style="fill:#A18968;" d="M366.435,197.408c0,0,6.958-10.01,8.813-47.758c0.141-2.558,0.235-5.258,0.31-8.058
				c1.125-44.406-23.913-67.157-29.618-58.067c-2.123,3.38-10.046,14.929-19.173,28.112c-15.431,22.303-34.359,49.326-34.359,49.326
				h-36.406h-36.416c0,0-18.928-27.022-34.358-49.326c-9.118-13.182-17.05-24.732-19.168-28.112
				c-5.705-9.09-30.743,13.66-29.623,58.067c0.075,2.8,0.17,5.5,0.315,8.058c1.85,37.748,8.808,47.758,8.808,47.758
				s-41.532,55.652-50.104,140.195l0.87-0.063l34.448-2.088l6.421,28.901l33.2-4.274l10.69,21.416l32.113-9.629h43.862h7.777h33.958
				l32.113,9.629l10.69-21.416l33.201,4.274l6.426-28.901l34.448,2.088l0.866,0.063
				C407.972,253.061,366.435,197.408,366.435,197.408z"/>
			<path style="fill:#FEFEFF;" d="M345.417,330.121c-30.823,16.51-82.467,43.004-86.049,44.839l-3.366,0.113l-3.37-0.113
				c-3.587-1.835-55.226-28.328-86.049-44.839c-26.898-14.418-56.045-12.169-71.565,10.631l34.279-2.088l6.392,28.894l33.035-4.27
				l10.634,21.418l15.172-4.57c4.702,11.126,15.224,31.221,61.473,31.221c46.244,0,56.76-20.096,61.463-31.221l15.172,4.57
				l10.634-21.418l33.036,4.27l6.397-28.894l34.279,2.088C401.458,317.952,372.31,315.703,345.417,330.121z"/>
			<path style="fill:#71605B;" d="M275.59,365.153c-4.166,0-19.592,0-19.592,0s-15.43,0-19.587,0
				c-11.683,0-19.182,14.174-10.012,25.848c11.434,14.555,22.096,15.004,29.599,15.004c7.5,0,18.161-0.45,29.595-15.004
				C294.762,379.326,287.268,365.153,275.59,365.153z"/>
			<g>
				<g>
					<path style="fill:#FEFEFF;" d="M320.883,166.656c0,0,13.152-18.084,17.61-23.205c4.454-5.122,11.571-2.123,13.425,5.126
						c2.952,11.505,3.092,25.815-5.978,36.293C343.657,183.731,320.883,166.656,320.883,166.656z"/>
					<path style="fill:#71605B;" d="M326.767,111.636c31.69-18.991,44.922,17.829,48.481,38.014c0.141-2.558,0.235-5.258,0.31-8.058
						c1.125-44.406-23.913-67.157-29.618-58.067C343.817,86.905,335.894,98.454,326.767,111.636z"/>
				</g>
				<path style="fill:#FEFEFF;" d="M191.113,166.656c0,0-13.148-18.084-17.61-23.205c-4.449-5.122-11.562-2.123-13.42,5.126
					c-2.956,11.505-3.092,25.815,5.978,36.293C168.338,183.731,191.113,166.656,191.113,166.656z"/>
				<path style="fill:#71605B;" d="M185.228,111.636c-31.689-18.991-44.918,17.829-48.476,38.014
					c-0.145-2.558-0.24-5.258-0.315-8.058c-1.12-44.406,23.918-67.157,29.623-58.067C168.179,86.905,176.11,98.454,185.228,111.636z
					"/>
			</g>
			<g>
				<g>
					<path style="fill:#564236;" d="M191.06,273.577h-16.904l5.465,7.412c-0.706,1.572-1.111,3.292-1.111,5.116
						c0,6.929,5.616,12.55,12.55,12.55c6.92,0,12.54-5.621,12.54-12.55C203.601,279.19,197.98,273.577,191.06,273.577z"/>
				</g>
				<g>
					<path style="fill:#564236;" d="M320.935,273.577h16.904l-5.47,7.412c0.715,1.572,1.12,3.292,1.12,5.116
						c0,6.929-5.611,12.55-12.554,12.55c-6.915,0-12.531-5.621-12.531-12.55C308.404,279.19,314.02,273.577,320.935,273.577z"/>
				</g>
			</g>
			<path style="opacity:0.13;fill:#564236;" d="M414.483,337.467l1.191,0.073l0.866,0.063
				c-8.568-84.542-50.105-140.195-50.105-140.195s6.958-10.01,8.813-47.758c0.141-2.558,0.235-5.258,0.31-8.058
				c1.125-44.406-23.913-67.157-29.618-58.067c-2.123,3.38-10.046,14.929-19.173,28.112c-15.431,22.303-34.359,49.326-34.359,49.326
				h-36.406h-2.062V430.38c0.706,0.012,1.341,0.073,2.062,0.073c49.186,0,62.734-27.707,69.145-48.003l7.49,2.257l10.634-21.418
				l33.036,4.27l6.397-28.894l34.279,2.088C416.187,339.59,415.344,338.521,414.483,337.467z"/>
		</g>
		<g>
			<g>
				<path style="fill:#C0B495;" d="M212.563,377.754h-67.361c-1.102,0-1.986,0.888-1.986,1.989c0,1.099,0.885,1.991,1.986,1.991
					h67.361c1.097,0,1.987-0.892,1.987-1.991C214.55,378.642,213.66,377.754,212.563,377.754"/>
				<path style="fill:#C0B495;" d="M212.474,367.8l-57.951-22.143c-1.022-0.39-2.17,0.122-2.566,1.154
					c-0.39,1.026,0.122,2.174,1.148,2.568l57.942,22.143c1.027,0.388,2.184-0.122,2.576-1.153
					C214.013,369.342,213.5,368.194,212.474,367.8"/>
				<path style="fill:#C0B495;" d="M212.121,386.917l-55.806,27.07c-0.989,0.478-1.408,1.671-0.927,2.659
					c0.481,0.989,1.671,1.403,2.664,0.921l55.805-27.07c0.989-0.478,1.408-1.666,0.927-2.66
					C214.3,386.849,213.11,386.437,212.121,386.917"/>
			</g>
			<g>
				<path style="fill:#C0B495;" d="M299.446,377.754h67.351c1.102,0,1.991,0.888,1.991,1.989c0,1.099-0.889,1.991-1.991,1.991
					h-67.351c-1.107,0-1.996-0.892-1.996-1.991C297.45,378.642,298.34,377.754,299.446,377.754"/>
				<path style="fill:#C0B495;" d="M299.526,367.8l57.951-22.143c1.026-0.39,2.175,0.122,2.566,1.154
					c0.396,1.026-0.118,2.174-1.139,2.568l-57.951,22.143c-1.026,0.388-2.18-0.122-2.575-1.153
					C297.987,369.342,298.5,368.194,299.526,367.8"/>
				<path style="fill:#C0B495;" d="M299.879,386.917l55.806,27.07c0.993,0.478,1.407,1.671,0.927,2.659
					c-0.48,0.989-1.671,1.403-2.66,0.921l-55.81-27.07c-0.988-0.478-1.403-1.666-0.922-2.66
					C297.7,386.849,298.891,386.437,299.879,386.917"/>
			</g>
		</g>
	</g>
</g>
</svg>
