<?xml version="1.0" encoding="iso-8859-1"?>
<!-- Generator: Adobe Illustrator 18.0.0, SVG Export Plug-In . SVG Version: 6.00 Build 0)  -->
<!DOCTYPE svg PUBLIC "-//W3C//DTD SVG 1.1//EN" "http://www.w3.org/Graphics/SVG/1.1/DTD/svg11.dtd">
<svg version="1.1" id="_x31_" xmlns="http://www.w3.org/2000/svg" xmlns:xlink="http://www.w3.org/1999/xlink" x="0px" y="0px"
	 viewBox="0 0 512 512" style="enable-background:new 0 0 512 512;" xml:space="preserve">
<g>
	<rect style="fill:#E17B80;" width="512" height="512"/>
	<polygon style="opacity:0.1;fill:#231815;" points="512,177.97 512,512 296.245,512 229.17,444.925 254.925,347.8 84.633,177.51 
		202.24,159.435 220.315,41.83 281.755,103.27 335.515,49.51 425.165,139.16 455.525,121.494 	"/>
	<g>
		<g>
			<g>
				<path style="fill:#F7C56C;" d="M253.015,131.12H217.96c-10.41,0-20.32,4.455-27.24,12.235l-31.355,35.27
					c-5.925,6.67-9.2,15.28-9.2,24.215v46.495c3.475,0.37,6.885-2.885,10.215-2.18c10.385,2.215,19.965,6.285,28.085,13.61
					c15.915,14.34,26.29,45.48,26.29,95.35c0,25.775-4.4,41.625-9.83,52.145c0.28,2.3,0.415,4.62,0.25,6.95l0.19-2.685
					c-0.995,13.975,6.11,27.285,18.27,34.24l1.695,0.975c5.505,3.145,11.74,9.08,18.085,9.08h9.6h2.99v-325.7H253.015z"/>
				<path style="fill:#F9D08E;" d="M188.465,260.765c-8.12-7.325-17.7-11.395-28.085-13.61c-3.33-0.705-6.74,2.55-10.215,2.18v44.4
					c0,5.56,1.28,11.05,3.725,16.045l47.655,86.785c1.81,3.685,2.9,7.65,3.38,11.695c5.43-10.52,9.83-26.37,9.83-52.145
					C214.755,306.245,204.38,275.105,188.465,260.765z"/>
			</g>
			<g>
				<g>
					<path style="fill:#F7C56C;" d="M177.515,164.135c0-12.715-20.725-52.44-44.56-52.44c-23.84,0-39.225,0-58.29,0
						c-19.08,0-25.61,18.535-16.07,34.425c8.415,14.03,17.945,24.365,22.71,30.73c4.765,6.355,18.275,17.475,32.58,17.475
						c14.3,0,52.44,0,52.44,0L177.515,164.135z"/>
					<path style="fill:#7C6960;" d="M113.885,172.875c-5.34,0-13.125-5.845-15.415-8.9c-2.03-2.71-3.845-4.755-5.445-6.565
						c-2.715-3.065-5.28-5.96-10.005-13.85c-0.22-0.44-0.48-2.68,0.685-5.645c1.125-2.885,2.78-4.41,3.44-4.77h45.63
						c5.15,2.485,21.17,22.99,21.17,32.26l-9.07,7.47H113.885z"/>
				</g>
			</g>
			<g>
				<g>
					<rect x="185.525" y="87.555" style="fill:#F7C56C;" width="32.13" height="79.995"/>
					<path style="fill:#7C6960;" d="M233.02,67.56c0,17.35-14.075,31.42-31.43,31.42c-17.35,0-31.425-14.07-31.425-31.42
						c0-17.355,14.075-31.43,31.425-31.43C218.945,36.13,233.02,50.205,233.02,67.56z"/>
				</g>
			</g>
			<path style="fill:#7C6960;" d="M233.325,414.685c0,5.92-4.16,10.715-9.285,10.715c-5.125,0-9.285-4.795-9.285-10.715
				c0-5.92,4.16-10.715,9.285-10.715C229.165,403.97,233.325,408.765,233.325,414.685z"/>
			<g>
				<path style="fill:#7C6960;" d="M183.325,261.475c0,9.07-7.355,16.43-16.425,16.43c-9.07,0-16.43-7.36-16.43-16.43
					c0-9.075,7.36-16.425,16.43-16.425C175.97,245.05,183.325,252.4,183.325,261.475z"/>
				<polygon style="fill:#7C6960;" points="166.9,245.05 144.76,245.05 152.135,255.05 				"/>
			</g>
			<path style="fill:#7C6960;" d="M258.145,446.47h-1.61h-5.355h-25.175c0,0,2.68,3.745,8.035,3.745c3.245,0,10.985,0,16.605,0
				c3.665,0,6.43,0,6.43,0c0.175,0,0.355,0,0.535,0"/>
		</g>
		<g>
			<g>
				<path style="fill:#F7BF67;" d="M258.985,131.12h35.06c10.415,0,20.32,4.455,27.24,12.235l31.35,35.27
					c5.925,6.67,9.2,15.28,9.2,24.215v46.495c-3.475,0.37-6.88-2.885-10.215-2.18c-10.38,2.215-19.955,6.285-28.08,13.61
					c-15.915,14.34-26.29,45.48-26.29,95.35c0,25.775,4.4,41.625,9.83,52.145c-0.28,2.3-0.42,4.62-0.255,6.95l-0.19-2.685
					c1,13.975-6.1,27.285-18.27,34.24l-1.69,0.975c-5.51,3.145-11.74,9.08-18.085,9.08h-9.605h-2.98v-325.7H258.985z"/>
				<path style="fill:#F9D08E;" d="M323.54,260.765c8.125-7.325,17.7-11.395,28.08-13.61c3.335-0.705,6.74,2.55,10.215,2.18v44.4
					c0,5.56-1.275,11.05-3.72,16.045l-47.655,86.785c-1.81,3.685-2.895,7.65-3.38,11.695c-5.43-10.52-9.83-26.37-9.83-52.145
					C297.25,306.245,307.625,275.105,323.54,260.765z"/>
			</g>
			<g>
				<g>
					<path style="fill:#F7BF67;" d="M334.49,164.135c0-12.715,20.725-52.44,44.56-52.44c23.84,0,39.225,0,58.29,0
						c19.08,0,25.605,18.535,16.07,34.425c-8.415,14.03-17.94,24.365-22.715,30.73c-4.765,6.355-18.275,17.475-32.575,17.475
						c-14.305,0-52.445,0-52.445,0L334.49,164.135z"/>
					<path style="fill:#7C6960;" d="M398.12,172.875c5.34,0,13.125-5.845,15.415-8.9c2.03-2.71,3.84-4.755,5.44-6.565
						c2.715-3.065,5.285-5.96,10.01-13.85c0.215-0.44,0.475-2.68-0.68-5.645c-1.135-2.885-2.79-4.41-3.445-4.77h-45.63
						c-5.15,2.485-21.17,22.99-21.17,32.26l9.075,7.47H398.12z"/>
				</g>
			</g>
			<g>
				<g>
					<rect x="294.35" y="87.555" style="fill:#F7BF67;" width="32.135" height="79.995"/>
					<path style="fill:#7C6960;" d="M278.99,67.56c0,17.35,14.065,31.42,31.425,31.42c17.35,0,31.425-14.07,31.425-31.42
						c0-17.355-14.075-31.43-31.425-31.43C293.055,36.13,278.99,50.205,278.99,67.56z"/>
				</g>
			</g>
			<path style="fill:#7C6960;" d="M278.675,414.685c0,5.92,4.165,10.715,9.285,10.715c5.13,0,9.29-4.795,9.29-10.715
				c0-5.92-4.16-10.715-9.29-10.715C282.84,403.97,278.675,408.765,278.675,414.685z"/>
			<path style="fill:#7C6960;" d="M328.68,261.475c0,9.07,7.35,16.43,16.425,16.43c9.07,0,16.43-7.36,16.43-16.43
				c0-9.075-7.36-16.425-16.43-16.425C336.03,245.05,328.68,252.4,328.68,261.475z"/>
			<polygon style="fill:#7C6960;" points="345.105,245.05 367.245,245.05 359.87,255.05 			"/>
			<path style="fill:#7C6960;" d="M253.855,446.47h1.61h5.355H286c0,0-2.675,3.745-8.035,3.745c-3.245,0-10.99,0-16.605,0
				c-3.665,0-6.43,0-6.43,0c-0.175,0-0.355,0-0.535,0"/>
		</g>
	</g>
</g>
</svg>
